{
    "asset" : {
        "generator" : "Khronos glTF Blender I/O v1.1.45",
        "version" : "2.0"
    },
    "scene" : 0,
    "scenes" : [
        {
            "name" : "Scene",
            "nodes" : [
                0
            ]
        }
    ],
    "nodes" : [
        {
            "mesh" : 0,
            "name" : "Ballon",
            "rotation" : [
                0,
                0,
                0,
                0.9908877015113831
            ],
            "translation" : [
                0.3050987720489502,
                0,
                -0.9225987195968628
            ]
        }
    ],
    "animations" : [
        {
            "channels" : [
                {
                    "sampler" : 0,
                    "target" : {
                        "node" : 0,
                        "path" : "translation"
                    }
                },
                {
                    "sampler" : 1,
                    "target" : {
                        "node" : 0,
                        "path" : "rotation"
                    }
                },
                {
                    "sampler" : 2,
                    "target" : {
                        "node" : 0,
                        "path" : "scale"
                    }
                }
            ],
            "name" : "Fly Away",
            "samplers" : [
                {
                    "input" : 4,
                    "interpolation" : "LINEAR",
                    "output" : 5
                },
                {
                    "input" : 4,
                    "interpolation" : "LINEAR",
                    "output" : 6
                },
                {
                    "input" : 7,
                    "interpolation" : "LINEAR",
                    "output" : 8
                }
            ]
        }
    ],
    "materials" : [
        {
            "doubleSided" : true,
            "emissiveFactor" : [
                0,
                0,
                0
            ],
            "name" : "Ballon",
            "normalTexture" : {
                "index" : 0,
                "texCoord" : 0
            },
            "pbrMetallicRoughness" : {
                "baseColorTexture" : {
                    "index" : 1,
                    "texCoord" : 0
                },
                "metallicFactor" : 0,
                "metallicRoughnessTexture" : {
                    "index" : 2,
                    "texCoord" : 0
                }
            }
        }
    ],
    "meshes" : [
        {
            "name" : "Mesh_0.001",
            "primitives" : [
                {
                    "attributes" : {
                        "POSITION" : 0,
                        "NORMAL" : 1,
                        "TEXCOORD_0" : 2
                    },
                    "indices" : 3,
                    "material" : 0
                }
            ]
        }
    ],
    "textures" : [
        {
            "source" : 0
        },
        {
            "source" : 1
        },
        {
            "source" : 2
        }
    ],
    "images" : [
        {
            "bufferView" : 4,
            "mimeType" : "image/png",
            "name" : "Balloon_Ballon_Normal"
        },
        {
            "bufferView" : 5,
            "mimeType" : "image/png",
            "name" : "DiffuseLight"
        },
        {
            "bufferView" : 6,
            "mimeType" : "image/png",
            "name" : "Rougness"
        }
    ],
    "accessors" : [
        {
            "bufferView" : 0,
            "componentType" : 5126,
            "count" : 7144,
            "max" : [
                2.6653897762298584,
                5.082664489746094,
                2.708909273147583
            ],
            "min" : [
                -2.736379384994507,
                -1.5069959163665771,
                -2.6904470920562744
            ],
            "type" : "VEC3"
        },
        {
            "bufferView" : 1,
            "componentType" : 5126,
            "count" : 7144,
            "type" : "VEC3"
        },
        {
            "bufferView" : 2,
            "componentType" : 5126,
            "count" : 7144,
            "type" : "VEC2"
        },
        {
            "bufferView" : 3,
            "componentType" : 5123,
            "count" : 22338,
            "type" : "SCALAR"
        },
        {
            "bufferView" : 7,
            "componentType" : 5126,
            "count" : 110,
            "max" : [
                4.583333333333333
            ],
            "min" : [
                0.041666666666666664
            ],
            "type" : "SCALAR"
        },
        {
            "bufferView" : 8,
            "componentType" : 5126,
            "count" : 110,
            "type" : "VEC3"
        },
        {
            "bufferView" : 9,
            "componentType" : 5126,
            "count" : 110,
            "type" : "VEC4"
        },
        {
            "bufferView" : 10,
            "componentType" : 5126,
            "count" : 61,
            "max" : [
                4.583333333333333
            ],
            "min" : [
                2.0833333333333335
            ],
            "type" : "SCALAR"
        },
        {
            "bufferView" : 11,
            "componentType" : 5126,
            "count" : 61,
            "type" : "VEC3"
        }
    ],
    "bufferViews" : [
        {
            "buffer" : 0,
            "byteLength" : 85728,
            "byteOffset" : 0
        },
        {
            "buffer" : 0,
            "byteLength" : 85728,
            "byteOffset" : 85728
        },
        {
            "buffer" : 0,
            "byteLength" : 57152,
            "byteOffset" : 171456
        },
        {
            "buffer" : 0,
            "byteLength" : 44676,
            "byteOffset" : 228608
        },
        {
            "buffer" : 0,
            "byteLength" : 620639,
            "byteOffset" : 273284
        },
        {
            "buffer" : 0,
            "byteLength" : 361932,
            "byteOffset" : 893924
        },
        {
            "buffer" : 0,
            "byteLength" : 171182,
            "byteOffset" : 1255856
        },
        {
            "buffer" : 0,
            "byteLength" : 440,
            "byteOffset" : 1427040
        },
        {
            "buffer" : 0,
            "byteLength" : 1320,
            "byteOffset" : 1427480
        },
        {
            "buffer" : 0,
            "byteLength" : 1760,
            "byteOffset" : 1428800
        },
        {
            "buffer" : 0,
            "byteLength" : 244,
            "byteOffset" : 1430560
        },
        {
            "buffer" : 0,
            "byteLength" : 732,
            "byteOffset" : 1430804
        }
    ],
    "buffers" : [
        {
            "byteLength" : 1431536,
            "uri" : "data:application/octet-stream;base64,"
        }
    ]
}
