<svg width="247" height="130" viewBox="0 0 247 130" fill="none" xmlns="http://www.w3.org/2000/svg">
<path d="M41.2528 52.8902L30.6294 63.7451C33.858 67.1536 38.4407 69.3036 43.492 69.3036C48.5433 69.3036 53.126 67.1536 56.3546 63.7451L45.6792 52.8902C44.4814 51.6841 42.5026 51.6841 41.2528 52.8902Z" fill="#73F427"/>
<path d="M77.5494 85.2451L65.3116 72.8171C60.3645 84.3537 53.5946 97.1488 48.9079 105.644C46.5124 109.944 40.3675 109.944 38.0241 105.644C33.3373 97.1488 26.5675 84.3537 21.6203 72.8171L9.43465 85.2451C8.4973 86.2415 9.17428 87.8671 10.5282 87.8671H18.8082V102.602C18.8082 106.116 21.6203 109 25.1614 109H62.0309C65.5199 109 68.3841 106.116 68.3841 102.602L68.2279 87.9195H76.5078C77.8097 87.8671 78.4867 86.2415 77.5494 85.2451Z" fill="#73F427"/>
<path d="M25.7343 51.422C25.7343 41.5634 33.7018 33.5402 43.492 33.5402C53.2822 33.5402 61.2498 41.5634 61.2498 51.422C61.2498 56.1939 59.375 60.5463 56.3547 63.7451L65.3116 72.8171C69.009 64.1646 71.7169 56.2463 71.7169 51.422C71.7169 35.7427 59.0626 23 43.492 23C27.8694 23 15.2671 35.7427 15.2671 51.422C15.2671 56.2463 17.975 64.1646 21.6724 72.8171L30.6294 63.6927C27.609 60.5463 25.7343 56.1939 25.7343 51.422Z" fill="#FEFBFA"/>
<path d="M48.9079 105.644C53.5947 97.1488 60.3645 84.3537 65.3116 72.8171L56.3547 63.7451C53.126 67.1537 48.5433 69.3037 43.492 69.3037C38.4407 69.3037 33.8581 67.1537 30.6294 63.7451L21.6203 72.8171C26.5675 84.3537 33.3373 97.1488 38.0241 105.644C40.4196 109.944 46.5645 109.944 48.9079 105.644Z" fill="#73F427"/>
<path opacity="0.6" d="M48.9079 105.644C53.5947 97.1488 60.3645 84.3537 65.3116 72.8171L56.3547 63.7451C53.126 67.1537 48.5433 69.3037 43.492 69.3037C38.4407 69.3037 33.8581 67.1537 30.6294 63.7451L21.6203 72.8171C26.5675 84.3537 33.3373 97.1488 38.0241 105.644C40.4196 109.944 46.5645 109.944 48.9079 105.644Z" fill="#E5F731"/>
<rect x="79.9917" y="26.4412" width="122.005" height="86.0809" fill="#2C9842"/>
<path d="M93.5746 50.0256H91.2946L90.5506 54.3456H87.7666L88.5106 50.0256H86.3266L86.7826 47.3856H88.9906L89.4946 44.5056H87.2866L87.7426 41.8656H89.9506L90.7186 37.5456H93.5026L92.7346 41.8656H95.0146L95.7826 37.5456H98.5666L97.7986 41.8656H100.007L99.5506 44.5056H97.3426L96.8386 47.3856H99.0466L98.5906 50.0256H96.3586L95.6146 54.3456H92.8306L93.5746 50.0256ZM91.7746 47.3856H94.0546L94.5586 44.5056H92.2786L91.7746 47.3856ZM160.216 54.6816C159.064 54.6816 158.088 54.5376 157.288 54.2496C156.504 53.9616 155.864 53.5296 155.368 52.9536C154.888 52.3616 154.536 51.6256 154.312 50.7456C154.088 49.8656 153.976 48.8256 153.976 47.6256C153.976 45.4176 154.496 43.7696 155.536 42.6816C156.576 41.5936 158.056 41.0496 159.976 41.0496C161.048 41.0496 161.944 41.1936 162.664 41.4816C163.4 41.7536 163.992 42.1536 164.44 42.6816C164.904 43.2096 165.232 43.8496 165.424 44.6016C165.632 45.3376 165.736 46.1696 165.736 47.0976V48.8256H157.576C157.64 49.8496 157.912 50.5856 158.392 51.0336C158.872 51.4816 159.64 51.7056 160.696 51.7056C161.112 51.7056 161.528 51.6736 161.944 51.6096C162.376 51.5296 162.784 51.4256 163.168 51.2976C163.552 51.1696 163.904 51.0176 164.224 50.8416C164.544 50.6656 164.808 50.4816 165.016 50.2896V53.5056C164.472 53.8416 163.832 54.1216 163.096 54.3456C162.376 54.5696 161.416 54.6816 160.216 54.6816ZM159.976 43.7856C159.192 43.7856 158.608 44.0096 158.224 44.4576C157.856 44.9056 157.64 45.6416 157.576 46.6656H162.136C162.136 45.6896 161.984 44.9696 161.68 44.5056C161.376 44.0256 160.808 43.7856 159.976 43.7856ZM167.891 41.3856H176.411V44.6016H171.491V54.3456H167.891V41.3856ZM178.321 41.3856H181.921V47.4576C181.921 47.6816 181.913 47.9056 181.897 48.1296C181.897 48.3376 181.889 48.5296 181.873 48.7056C181.857 48.9136 181.849 49.1136 181.849 49.3056H181.945C182.025 49.1136 182.113 48.9136 182.209 48.7056C182.289 48.5296 182.385 48.3296 182.497 48.1056C182.609 47.8656 182.729 47.6256 182.857 47.3856L186.049 41.3856H189.601V54.3456H186.001V48.3936C186.001 48.1376 186.001 47.8896 186.001 47.6496C186.001 47.4096 186.009 47.2016 186.025 47.0256C186.041 46.8176 186.057 46.6176 186.073 46.4256H185.977C185.897 46.6176 185.809 46.8176 185.713 47.0256C185.633 47.2016 185.537 47.4096 185.425 47.6496C185.313 47.8736 185.193 48.1056 185.065 48.3456L181.873 54.3456H178.321V41.3856Z" fill="#70F11D"/>
<path d="M107.317 54.6816C106.229 54.6816 105.285 54.5616 104.485 54.3216C103.701 54.0656 103.053 53.6656 102.541 53.1216C102.045 52.5616 101.677 51.8416 101.437 50.9616C101.197 50.0816 101.077 49.0096 101.077 47.7456C101.077 45.4256 101.589 43.7296 102.613 42.6576C103.653 41.5856 105.221 41.0496 107.317 41.0496C107.877 41.0496 108.389 41.0896 108.853 41.1696C109.317 41.2496 109.709 41.3296 110.029 41.4096C110.413 41.5056 110.749 41.6176 111.037 41.7456V45.4416C110.637 45.1216 110.181 44.8496 109.669 44.6256C109.173 44.3856 108.549 44.2656 107.797 44.2656C106.741 44.2656 105.973 44.5296 105.493 45.0576C105.013 45.5696 104.773 46.4656 104.773 47.7456C104.773 49.1216 105.029 50.0896 105.541 50.6496C106.053 51.1936 106.885 51.4656 108.037 51.4656C108.645 51.4656 109.237 51.3616 109.813 51.1536C110.405 50.9296 110.853 50.6656 111.157 50.3616V53.8176C110.853 53.9776 110.501 54.1216 110.101 54.2496C109.765 54.3616 109.357 54.4576 108.877 54.5376C108.397 54.6336 107.877 54.6816 107.317 54.6816ZM119.068 54.6816C118.076 54.6816 117.188 54.5616 116.404 54.3216C115.62 54.0656 114.956 53.6256 114.412 53.0016C113.868 52.3616 113.444 51.5056 113.14 50.4336C112.852 49.3456 112.708 47.9776 112.708 46.3296C112.708 44.2816 112.884 42.6256 113.236 41.3616C113.588 40.0976 114.076 39.1056 114.7 38.3856C115.34 37.6656 116.108 37.1616 117.004 36.8736C117.9 36.5696 118.892 36.3536 119.98 36.2256C120.556 36.1616 121.044 36.1056 121.444 36.0576C121.86 36.0096 122.22 35.9536 122.524 35.8896C122.828 35.8256 123.092 35.7616 123.316 35.6976C123.556 35.6336 123.788 35.5536 124.012 35.4576V39.0096C123.724 39.1696 123.308 39.3056 122.764 39.4176C122.236 39.5136 121.564 39.6096 120.748 39.7056C119.948 39.8016 119.22 39.9216 118.564 40.0656C117.924 40.1936 117.364 40.4176 116.884 40.7376C116.42 41.0576 116.052 41.4976 115.78 42.0576C115.508 42.6176 115.364 43.3696 115.348 44.3136H115.444C115.988 43.5136 116.62 42.8896 117.34 42.4416C118.076 41.9936 119.012 41.7696 120.148 41.7696C121.076 41.7696 121.86 41.8976 122.5 42.1536C123.14 42.3936 123.66 42.7776 124.06 43.3056C124.46 43.8176 124.748 44.4816 124.924 45.2976C125.1 46.1136 125.188 47.0896 125.188 48.2256C125.188 49.3776 125.044 50.3696 124.756 51.2016C124.484 52.0176 124.084 52.6816 123.556 53.1936C123.028 53.7056 122.38 54.0816 121.612 54.3216C120.86 54.5616 120.012 54.6816 119.068 54.6816ZM119.068 51.4656C119.932 51.4656 120.548 51.1936 120.916 50.6496C121.3 50.1056 121.492 49.2976 121.492 48.2256C121.492 47.0256 121.3 46.1856 120.916 45.7056C120.548 45.2256 119.932 44.9856 119.068 44.9856C118.156 44.9856 117.5 45.2496 117.1 45.7776C116.716 46.3056 116.524 47.1216 116.524 48.2256C116.524 49.2656 116.716 50.0656 117.1 50.6256C117.5 51.1856 118.156 51.4656 119.068 51.4656ZM132.864 54.6816C131.712 54.6816 130.736 54.5376 129.936 54.2496C129.152 53.9616 128.512 53.5296 128.016 52.9536C127.536 52.3616 127.184 51.6256 126.96 50.7456C126.736 49.8656 126.624 48.8256 126.624 47.6256C126.624 45.4176 127.144 43.7696 128.184 42.6816C129.224 41.5936 130.704 41.0496 132.624 41.0496C133.696 41.0496 134.592 41.1936 135.312 41.4816C136.048 41.7536 136.64 42.1536 137.088 42.6816C137.552 43.2096 137.88 43.8496 138.072 44.6016C138.28 45.3376 138.384 46.1696 138.384 47.0976V48.8256H130.224C130.288 49.8496 130.56 50.5856 131.04 51.0336C131.52 51.4816 132.288 51.7056 133.344 51.7056C133.76 51.7056 134.176 51.6736 134.592 51.6096C135.024 51.5296 135.432 51.4256 135.816 51.2976C136.2 51.1696 136.552 51.0176 136.872 50.8416C137.192 50.6656 137.456 50.4816 137.664 50.2896V53.5056C137.12 53.8416 136.48 54.1216 135.744 54.3456C135.024 54.5696 134.064 54.6816 132.864 54.6816ZM132.624 43.7856C131.84 43.7856 131.256 44.0096 130.872 44.4576C130.504 44.9056 130.288 45.6416 130.224 46.6656H134.784C134.784 45.6896 134.632 44.9696 134.328 44.5056C134.024 44.0256 133.456 43.7856 132.624 43.7856ZM140.539 41.3856H144.019L144.139 43.1856C144.443 42.5936 144.899 42.0896 145.507 41.6736C146.115 41.2576 146.939 41.0496 147.979 41.0496C148.779 41.0496 149.467 41.1696 150.043 41.4096C150.619 41.6496 151.091 42.0416 151.459 42.5856C151.827 43.1136 152.099 43.8016 152.275 44.6496C152.451 45.4976 152.539 46.5296 152.539 47.7456C152.539 50.2096 152.139 51.9856 151.339 53.0736C150.555 54.1456 149.315 54.6816 147.619 54.6816C147.107 54.6816 146.659 54.6176 146.275 54.4896C145.907 54.3776 145.579 54.2256 145.291 54.0336C145.019 53.8416 144.787 53.6256 144.595 53.3856C144.419 53.1456 144.267 52.9056 144.139 52.6656V58.6656H140.539V41.3856ZM148.843 47.7456C148.843 47.0736 148.795 46.5136 148.699 46.0656C148.603 45.6176 148.451 45.2656 148.243 45.0096C148.051 44.7376 147.803 44.5456 147.499 44.4336C147.211 44.3216 146.875 44.2656 146.491 44.2656C145.739 44.2656 145.155 44.4976 144.739 44.9616C144.339 45.4256 144.139 46.2096 144.139 47.3136V48.4176C144.139 49.5216 144.339 50.3056 144.739 50.7696C145.155 51.2336 145.747 51.4656 146.515 51.4656C146.899 51.4656 147.235 51.4096 147.523 51.2976C147.811 51.1856 148.051 50.9936 148.243 50.7216C148.451 50.4336 148.603 50.0496 148.699 49.5696C148.795 49.0896 148.843 48.4816 148.843 47.7456Z" fill="white"/>
<path d="M107.45 76.6816C106.362 76.6816 105.418 76.5616 104.618 76.3216C103.834 76.0656 103.186 75.6656 102.674 75.1216C102.178 74.5616 101.81 73.8416 101.57 72.9616C101.33 72.0816 101.21 71.0096 101.21 69.7456C101.21 67.4256 101.722 65.7296 102.746 64.6576C103.786 63.5856 105.354 63.0496 107.45 63.0496C108.01 63.0496 108.522 63.0896 108.986 63.1696C109.45 63.2496 109.842 63.3296 110.162 63.4096C110.546 63.5056 110.882 63.6176 111.17 63.7456V67.4416C110.77 67.1216 110.314 66.8496 109.802 66.6256C109.306 66.3856 108.682 66.2656 107.93 66.2656C106.874 66.2656 106.106 66.5296 105.626 67.0576C105.146 67.5696 104.906 68.4656 104.906 69.7456C104.906 71.1216 105.162 72.0896 105.674 72.6496C106.186 73.1936 107.018 73.4656 108.17 73.4656C108.778 73.4656 109.37 73.3616 109.946 73.1536C110.538 72.9296 110.986 72.6656 111.29 72.3616V75.8176C110.986 75.9776 110.634 76.1216 110.234 76.2496C109.898 76.3616 109.49 76.4576 109.01 76.5376C108.53 76.6336 108.01 76.6816 107.45 76.6816ZM118.653 76.6816C117.501 76.6816 116.525 76.5376 115.725 76.2496C114.941 75.9616 114.301 75.5296 113.805 74.9536C113.325 74.3616 112.973 73.6256 112.749 72.7456C112.525 71.8656 112.413 70.8256 112.413 69.6256C112.413 67.4176 112.933 65.7696 113.973 64.6816C115.013 63.5936 116.493 63.0496 118.413 63.0496C119.485 63.0496 120.381 63.1936 121.101 63.4816C121.837 63.7536 122.429 64.1536 122.877 64.6816C123.341 65.2096 123.669 65.8496 123.861 66.6016C124.069 67.3376 124.173 68.1696 124.173 69.0976V70.8256H116.013C116.077 71.8496 116.349 72.5856 116.829 73.0336C117.309 73.4816 118.077 73.7056 119.133 73.7056C119.549 73.7056 119.965 73.6736 120.381 73.6096C120.813 73.5296 121.221 73.4256 121.605 73.2976C121.989 73.1696 122.341 73.0176 122.661 72.8416C122.981 72.6656 123.245 72.4816 123.453 72.2896V75.5056C122.909 75.8416 122.269 76.1216 121.533 76.3456C120.813 76.5696 119.853 76.6816 118.653 76.6816ZM118.413 65.7856C117.629 65.7856 117.045 66.0096 116.661 66.4576C116.293 66.9056 116.077 67.6416 116.013 68.6656H120.573C120.573 67.6896 120.421 66.9696 120.117 66.5056C119.813 66.0256 119.245 65.7856 118.413 65.7856ZM132.209 76.6816C131.217 76.6816 130.329 76.5616 129.545 76.3216C128.761 76.0656 128.097 75.6256 127.553 75.0016C127.009 74.3616 126.585 73.5056 126.281 72.4336C125.993 71.3456 125.849 69.9776 125.849 68.3296C125.849 66.2816 126.025 64.6256 126.377 63.3616C126.729 62.0976 127.217 61.1056 127.841 60.3856C128.481 59.6656 129.249 59.1616 130.145 58.8736C131.041 58.5696 132.033 58.3536 133.121 58.2256C133.697 58.1616 134.185 58.1056 134.585 58.0576C135.001 58.0096 135.361 57.9536 135.665 57.8896C135.969 57.8256 136.233 57.7616 136.457 57.6976C136.697 57.6336 136.929 57.5536 137.153 57.4576V61.0096C136.865 61.1696 136.449 61.3056 135.905 61.4176C135.377 61.5136 134.705 61.6096 133.889 61.7056C133.089 61.8016 132.361 61.9216 131.705 62.0656C131.065 62.1936 130.505 62.4176 130.025 62.7376C129.561 63.0576 129.193 63.4976 128.921 64.0576C128.649 64.6176 128.505 65.3696 128.489 66.3136H128.585C129.129 65.5136 129.761 64.8896 130.481 64.4416C131.217 63.9936 132.153 63.7696 133.289 63.7696C134.217 63.7696 135.001 63.8976 135.641 64.1536C136.281 64.3936 136.801 64.7776 137.201 65.3056C137.601 65.8176 137.889 66.4816 138.065 67.2976C138.241 68.1136 138.329 69.0896 138.329 70.2256C138.329 71.3776 138.185 72.3696 137.897 73.2016C137.625 74.0176 137.225 74.6816 136.697 75.1936C136.169 75.7056 135.521 76.0816 134.753 76.3216C134.001 76.5616 133.153 76.6816 132.209 76.6816ZM132.209 73.4656C133.073 73.4656 133.689 73.1936 134.057 72.6496C134.441 72.1056 134.633 71.2976 134.633 70.2256C134.633 69.0256 134.441 68.1856 134.057 67.7056C133.689 67.2256 133.073 66.9856 132.209 66.9856C131.297 66.9856 130.641 67.2496 130.241 67.7776C129.857 68.3056 129.665 69.1216 129.665 70.2256C129.665 71.2656 129.857 72.0656 130.241 72.6256C130.641 73.1856 131.297 73.4656 132.209 73.4656ZM142.141 71.9776C141.469 71.6256 140.981 71.1216 140.677 70.4656C140.389 69.8096 140.245 68.9936 140.245 68.0176C140.245 67.1536 140.349 66.4176 140.557 65.8096C140.781 65.2016 141.133 64.7056 141.613 64.3216C142.109 63.9376 142.757 63.6576 143.557 63.4816C144.357 63.3056 145.333 63.2176 146.485 63.2176C146.965 63.2176 147.461 63.2256 147.973 63.2416C148.485 63.2576 148.949 63.2816 149.365 63.3136C149.861 63.3456 150.341 63.3696 150.805 63.3856V76.3456H147.205V72.5776H145.477L143.701 76.3456H139.765L142.141 71.9776ZM143.941 68.0176C143.941 68.5936 144.069 69.0016 144.325 69.2416C144.581 69.4816 145.061 69.6016 145.765 69.6016H147.205V66.5056C147.013 66.5056 146.829 66.4976 146.653 66.4816C146.493 66.4656 146.333 66.4576 146.173 66.4576C146.029 66.4416 145.893 66.4336 145.765 66.4336C145.061 66.4336 144.581 66.5536 144.325 66.7936C144.069 67.0336 143.941 67.4416 143.941 68.0176ZM101.93 85.3856H105.53V91.4576C105.53 91.6816 105.522 91.9056 105.506 92.1296C105.506 92.3376 105.498 92.5296 105.482 92.7056C105.466 92.9136 105.458 93.1136 105.458 93.3056H105.554C105.634 93.1136 105.722 92.9136 105.818 92.7056C105.898 92.5296 105.994 92.3296 106.106 92.1056C106.218 91.8656 106.338 91.6256 106.466 91.3856L109.658 85.3856H113.21V98.3456H109.61V92.3936C109.61 92.1376 109.61 91.8896 109.61 91.6496C109.61 91.4096 109.618 91.2016 109.634 91.0256C109.65 90.8176 109.666 90.6176 109.682 90.4256H109.586C109.506 90.6176 109.418 90.8176 109.322 91.0256C109.242 91.2016 109.146 91.4096 109.034 91.6496C108.922 91.8736 108.802 92.1056 108.674 92.3456L105.482 98.3456H101.93V85.3856ZM121.127 95.1296H122.447C122.863 94.1216 123.135 92.7776 123.263 91.0976C123.391 89.4176 123.455 87.5136 123.455 85.3856H132.719V95.1296H134.327V101.466H131.111V98.3456H124.343V101.466H121.127V95.1296ZM129.119 95.1296V88.6016H126.671C126.671 89.7056 126.615 90.7856 126.503 91.8416C126.407 92.8976 126.223 93.9936 125.951 95.1296H129.119ZM136.524 85.3856H140.004L140.124 87.1856C140.428 86.5936 140.884 86.0896 141.492 85.6736C142.1 85.2576 142.924 85.0496 143.964 85.0496C144.764 85.0496 145.452 85.1696 146.028 85.4096C146.604 85.6496 147.076 86.0416 147.444 86.5856C147.812 87.1136 148.084 87.8016 148.26 88.6496C148.436 89.4976 148.524 90.5296 148.524 91.7456C148.524 94.2096 148.124 95.9856 147.324 97.0736C146.54 98.1456 145.3 98.6816 143.604 98.6816C143.092 98.6816 142.644 98.6176 142.26 98.4896C141.892 98.3776 141.564 98.2256 141.276 98.0336C141.004 97.8416 140.772 97.6256 140.58 97.3856C140.404 97.1456 140.252 96.9056 140.124 96.6656V102.666H136.524V85.3856ZM144.828 91.7456C144.828 91.0736 144.78 90.5136 144.684 90.0656C144.588 89.6176 144.436 89.2656 144.228 89.0096C144.036 88.7376 143.788 88.5456 143.484 88.4336C143.196 88.3216 142.86 88.2656 142.476 88.2656C141.724 88.2656 141.14 88.4976 140.724 88.9616C140.324 89.4256 140.124 90.2096 140.124 91.3136V92.4176C140.124 93.5216 140.324 94.3056 140.724 94.7696C141.14 95.2336 141.732 95.4656 142.5 95.4656C142.884 95.4656 143.22 95.4096 143.508 95.2976C143.796 95.1856 144.036 94.9936 144.228 94.7216C144.436 94.4336 144.588 94.0496 144.684 93.5696C144.78 93.0896 144.828 92.4816 144.828 91.7456ZM153.376 103.002C153.136 103.002 152.896 102.986 152.656 102.954C152.432 102.922 152.232 102.882 152.056 102.834C151.848 102.786 151.648 102.73 151.456 102.666V99.4496C151.632 99.5616 151.808 99.6416 151.984 99.6896C152.176 99.7536 152.4 99.7856 152.656 99.7856C152.96 99.7856 153.224 99.6896 153.448 99.4976C153.688 99.3216 153.856 98.9376 153.952 98.3456L149.176 85.3856H153.064L155.584 93.3056L157.48 85.3856H161.176L157.624 98.0096C157.32 99.0816 157.024 99.9376 156.736 100.578C156.448 101.234 156.136 101.738 155.8 102.09C155.464 102.458 155.096 102.698 154.696 102.81C154.312 102.938 153.872 103.002 153.376 103.002ZM162.844 85.3856H171.364V88.6016H166.444V98.3456H162.844V85.3856ZM173.274 85.3856H176.874V91.4576C176.874 91.6816 176.866 91.9056 176.85 92.1296C176.85 92.3376 176.842 92.5296 176.826 92.7056C176.81 92.9136 176.802 93.1136 176.802 93.3056H176.898C176.978 93.1136 177.066 92.9136 177.162 92.7056C177.242 92.5296 177.338 92.3296 177.45 92.1056C177.562 91.8656 177.682 91.6256 177.81 91.3856L181.002 85.3856H184.554V98.3456H180.954V92.3936C180.954 92.1376 180.954 91.8896 180.954 91.6496C180.954 91.4096 180.962 91.2016 180.978 91.0256C180.994 90.8176 181.01 90.6176 181.026 90.4256H180.93C180.85 90.6176 180.762 90.8176 180.666 91.0256C180.586 91.2016 180.49 91.4096 180.378 91.6496C180.266 91.8736 180.146 92.1056 180.018 92.3456L176.826 98.3456H173.274V85.3856ZM189.95 91.7216L186.59 85.3856H190.574L192.518 89.2256L194.462 85.3856H198.35L194.99 91.6256L198.59 98.3456H194.558L192.422 94.0256L190.286 98.3456H186.35L189.95 91.7216Z" fill="#70F11D"/>
</svg>
