<svg width="173" height="114" viewBox="0 0 173 114" fill="none" xmlns="http://www.w3.org/2000/svg">
<g clip-path="url(#clip0)">
<path d="M146.099 113.475C156.749 113.475 165.382 111.359 165.382 108.749C165.382 106.138 156.749 104.022 146.099 104.022C135.449 104.022 126.816 106.138 126.816 108.749C126.816 111.359 135.449 113.475 146.099 113.475Z" fill="#ACACAC"/>
<path d="M131.974 66.1709C131.974 66.1709 130.431 67.5748 130.214 69.444C129.998 71.3124 130.761 71.9771 131.113 71.6094C131.113 71.6094 131.554 73.3417 132.201 73.0671C132.201 73.0671 132.765 73.954 133.488 73.3732C133.488 73.3732 134.005 74.0255 134.465 73.4886C134.764 73.1394 134.296 71.7601 134.24 71.0771C134.185 70.394 134.152 69.7101 134.538 69.6071C135.201 69.4301 135.636 71.4609 136.027 71.6417C136.419 71.8224 136.757 71.5778 136.684 70.9832C136.61 70.3886 136.46 68.3648 136.225 67.6178C135.991 66.8709 135.64 66.0955 135.64 66.0955C135.64 66.0955 137.619 60.6994 138.135 58.4478C138.652 56.1955 138.437 54.4586 138.6 54.2463C138.763 54.034 141.998 44.4363 142.163 41.7917C142.329 39.147 142.241 36.2301 140.487 35.8147C138.733 35.4001 136.79 40.2009 136.003 43.1324C135.283 45.8117 134.662 53.314 134.662 53.314C133.541 56.1347 133.554 56.0086 132.666 60.7524C132.234 63.0701 131.974 66.1709 131.974 66.1709Z" fill="#F4CEBB"/>
<path d="M131.114 71.7164C131.064 71.7164 131.02 71.6818 131.01 71.631C130.723 70.2279 130.958 69.2086 130.968 69.1663C130.982 69.1086 131.038 69.0733 131.095 69.0871C131.152 69.101 131.187 69.1586 131.174 69.2163C131.171 69.2263 130.94 70.2348 131.218 71.5871C131.23 71.6448 131.193 71.7018 131.136 71.7141C131.127 71.7156 131.12 71.7164 131.114 71.7164Z" fill="#F0A087"/>
<path d="M132.201 73.174C132.156 73.174 132.115 73.1448 132.101 73.0994C131.495 71.1986 131.876 70.0102 131.892 69.9609C131.911 69.9048 131.97 69.8748 132.026 69.8933C132.081 69.9117 132.111 69.9725 132.093 70.0286C132.089 70.0402 131.719 71.2056 132.302 73.034C132.32 73.0902 132.289 73.1502 132.234 73.1686C132.223 73.1725 132.212 73.174 132.201 73.174Z" fill="#F0A087"/>
<path d="M133.488 73.4801C133.45 73.4801 133.412 73.4578 133.394 73.4201C132.776 72.1355 132.849 70.5117 132.852 70.4432C132.855 70.384 132.902 70.3409 132.962 70.3417C133.021 70.3448 133.066 70.3948 133.063 70.454C133.062 70.4701 132.991 72.0924 133.583 73.3263C133.609 73.3794 133.587 73.4432 133.535 73.4694C133.519 73.4763 133.504 73.4801 133.488 73.4801Z" fill="#F0A087"/>
<path d="M141.161 35.4125C140.216 35.5255 139.368 35.2063 137.432 37.3871C135.496 39.5678 134.537 46.5978 134.537 46.5978L141.481 48.4248C141.481 48.4248 142.508 41.9032 142.668 40.4279C142.934 37.984 142.105 35.3002 141.161 35.4125Z" fill="#F27997"/>
<path d="M157.256 74.5294C157.048 81.4647 155.584 85.6901 155.584 86.4324C155.584 87.1747 156.375 90.7147 156.43 94.0832C156.437 94.5317 156.42 95.0455 156.382 95.5993C156.148 99.2032 155.133 104.52 155.133 104.817C155.133 105.159 156.091 107.957 156.091 108.385C156.091 108.814 155.358 108.842 155.133 108.557C155.133 108.557 154.485 108.899 154.035 108.529C154.035 108.529 153.556 108.985 153.021 108.585C153.021 108.585 152.458 108.928 151.837 108.529C151.837 108.529 151.602 108.775 151.208 108.624C150.814 108.471 150.777 108.167 150.909 107.768C151.04 107.368 151.997 104.913 152.017 104.551C152.033 104.215 151.124 98.8855 150.883 95.6586C150.863 95.4117 150.849 95.1778 150.839 94.9594C150.701 91.8763 150.664 86.8909 150.439 86.1294C150.213 85.3671 148.636 79.0494 148.335 76.5378C148.035 74.0255 147.482 70.9424 147.025 70.904H146.995C146.539 70.9424 145.986 74.0255 145.685 76.5378C145.384 79.0501 143.807 85.3678 143.582 86.1294C143.356 86.8901 143.32 91.8755 143.18 94.9594C143.17 95.1778 143.156 95.4117 143.138 95.6586C142.897 98.8855 141.987 104.215 142.004 104.551C142.024 104.913 142.981 107.369 143.112 107.768C143.243 108.168 143.206 108.472 142.812 108.624C142.417 108.775 142.183 108.529 142.183 108.529C141.564 108.929 141 108.585 141 108.585C140.465 108.985 139.986 108.529 139.986 108.529C139.535 108.899 138.888 108.557 138.888 108.557C138.662 108.842 137.93 108.814 137.93 108.385C137.93 107.957 138.888 105.159 138.888 104.817C138.888 104.52 137.872 99.2032 137.638 95.5993C137.6 95.0455 137.584 94.5317 137.591 94.0832C137.645 90.7147 138.437 87.1747 138.437 86.4324C138.437 85.6901 136.972 81.4655 136.765 74.5294C136.558 67.594 137.986 61.3109 137.986 61.3109C137.986 61.3109 143.811 59.9409 156.033 61.3109C156.034 61.3109 157.463 67.594 157.256 74.5294Z" fill="#F4CEBB"/>
<path d="M157.256 74.5294C157.048 81.4648 155.584 85.6901 155.584 86.4324C155.584 87.1748 156.375 90.7148 156.43 94.0832C156.437 94.5317 156.42 95.0455 156.382 95.5994C155.294 96.0048 153.302 96.4901 150.883 95.6578C150.863 95.4109 150.849 95.1771 150.839 94.9586C150.701 91.8755 150.664 86.8901 150.439 86.1286C150.213 85.3663 148.636 79.0486 148.335 76.5371C148.035 74.0248 147.482 70.9417 147.025 70.9032H146.995C146.539 70.9417 145.986 74.0248 145.685 76.5371C145.384 79.0494 143.807 85.3671 143.582 86.1286C143.356 86.8894 143.32 91.8748 143.18 94.9586C143.17 95.1771 143.156 95.4109 143.138 95.6578C140.718 96.4901 138.727 96.0048 137.638 95.5994C137.6 95.0455 137.584 94.5317 137.591 94.0832C137.645 90.7148 138.437 87.1748 138.437 86.4324C138.437 85.6901 136.972 81.4655 136.765 74.5294C136.558 67.594 137.986 61.3109 137.986 61.3109C137.986 61.3109 143.811 59.9409 156.033 61.3109C156.034 61.3109 157.463 67.594 157.256 74.5294Z" fill="#7B7B7B"/>
<path d="M155.133 108.628C155.121 108.628 155.11 108.625 155.099 108.619C155.065 108.601 155.052 108.558 155.071 108.522C155.359 107.977 155.128 107.449 155.125 107.444C155.109 107.408 155.124 107.365 155.16 107.349C155.196 107.334 155.238 107.349 155.253 107.385C155.264 107.409 155.518 107.981 155.195 108.59C155.182 108.614 155.158 108.628 155.133 108.628Z" fill="#F0A087"/>
<path d="M154.035 108.599C154.021 108.599 154.008 108.595 153.996 108.588C153.963 108.566 153.954 108.522 153.976 108.489C154.276 108.026 154.07 107.445 154.067 107.439C154.054 107.402 154.073 107.362 154.109 107.348C154.145 107.334 154.186 107.353 154.199 107.39C154.209 107.416 154.433 108.044 154.094 108.568C154.079 108.588 154.057 108.599 154.035 108.599Z" fill="#F0A087"/>
<path d="M153.021 108.656C153.009 108.656 152.996 108.653 152.986 108.647C152.952 108.628 152.94 108.584 152.959 108.55C153.167 108.181 153.01 107.568 153.009 107.562C152.999 107.524 153.021 107.485 153.059 107.475C153.096 107.464 153.135 107.487 153.144 107.525C153.152 107.552 153.318 108.201 153.081 108.621C153.069 108.643 153.045 108.656 153.021 108.656Z" fill="#F0A087"/>
<path d="M151.838 108.599C151.821 108.599 151.803 108.593 151.79 108.581C151.761 108.554 151.759 108.509 151.785 108.48C152.077 108.159 151.885 107.572 151.883 107.566C151.871 107.529 151.89 107.489 151.927 107.475C151.965 107.463 152.004 107.483 152.017 107.52C152.026 107.547 152.237 108.192 151.889 108.576C151.875 108.592 151.857 108.599 151.838 108.599Z" fill="#F0A087"/>
<path d="M138.889 108.629C138.864 108.629 138.84 108.615 138.827 108.591C138.504 107.982 138.758 107.41 138.768 107.386C138.784 107.35 138.826 107.335 138.862 107.35C138.897 107.366 138.913 107.41 138.897 107.445C138.894 107.45 138.662 107.978 138.951 108.523C138.969 108.558 138.957 108.602 138.922 108.62C138.912 108.626 138.9 108.629 138.889 108.629Z" fill="#F0A087"/>
<path d="M139.987 108.599C139.964 108.599 139.942 108.588 139.929 108.567C139.589 108.043 139.813 107.416 139.823 107.389C139.837 107.352 139.876 107.334 139.914 107.347C139.95 107.361 139.969 107.402 139.955 107.439C139.953 107.444 139.747 108.026 140.046 108.488C140.068 108.521 140.059 108.566 140.027 108.587C140.014 108.596 140 108.599 139.987 108.599Z" fill="#F0A087"/>
<path d="M141.001 108.656C140.977 108.656 140.953 108.643 140.941 108.62C140.703 108.2 140.87 107.552 140.878 107.525C140.887 107.487 140.926 107.462 140.963 107.474C141 107.484 141.023 107.523 141.013 107.561C141.012 107.567 140.855 108.18 141.063 108.549C141.082 108.583 141.07 108.627 141.037 108.646C141.025 108.653 141.013 108.656 141.001 108.656Z" fill="#F0A087"/>
<path d="M142.184 108.599C142.165 108.599 142.146 108.592 142.132 108.576C141.784 108.192 141.995 107.547 142.005 107.52C142.017 107.483 142.056 107.463 142.094 107.476C142.131 107.489 142.15 107.529 142.138 107.566C142.136 107.572 141.945 108.159 142.236 108.48C142.263 108.509 142.26 108.554 142.231 108.581C142.218 108.593 142.201 108.599 142.184 108.599Z" fill="#F0A087"/>
<path d="M161.825 66.374C161.825 66.374 163.361 67.7863 163.568 69.6563C163.774 71.5263 163.008 72.187 162.658 71.817C162.658 71.817 162.208 73.547 161.562 73.2686C161.562 73.2686 160.993 74.1524 160.274 73.5678C160.274 73.5678 159.753 74.217 159.296 73.6778C158.998 73.327 159.473 71.9501 159.533 71.267C159.592 70.584 159.628 69.9009 159.243 69.7955C158.582 69.6155 158.136 71.6432 157.744 71.8216C157.351 72.0001 157.014 71.754 157.09 71.1593C157.167 70.5647 157.328 68.5424 157.565 67.7963C157.804 67.0501 158.159 66.277 158.159 66.277C158.159 66.277 156.208 60.8709 155.703 58.6163C155.197 56.3616 155.421 54.6255 155.26 54.4116C155.098 54.1986 151.912 44.584 151.76 41.9378C151.608 39.2924 151.711 36.3755 153.467 35.9701C155.223 35.5647 157.142 40.3755 157.914 43.3116C158.62 45.9947 159.202 53.5001 159.202 53.5001C160.31 56.327 160.296 56.2009 161.16 60.9493C161.581 63.2716 161.825 66.374 161.825 66.374Z" fill="#F4CEBB"/>
<path d="M162.658 71.924C162.651 71.924 162.643 71.9233 162.636 71.9217C162.579 71.9094 162.542 71.8525 162.555 71.7948C162.839 70.4402 162.613 69.434 162.611 69.424C162.597 69.3663 162.633 69.3086 162.69 69.2956C162.747 69.2817 162.804 69.3179 162.816 69.3756C162.826 69.4186 163.056 70.4386 162.761 71.8402C162.75 71.8894 162.706 71.924 162.658 71.924Z" fill="#F0A087"/>
<path d="M161.562 73.3755C161.551 73.3755 161.54 73.374 161.529 73.3702C161.473 73.3517 161.443 73.2909 161.461 73.2348C162.053 71.4109 161.689 70.2424 161.686 70.2309C161.667 70.1748 161.698 70.114 161.753 70.0955C161.81 70.0778 161.869 70.1078 161.887 70.164C161.903 70.2132 162.278 71.4048 161.662 73.3017C161.648 73.3471 161.607 73.3755 161.562 73.3755Z" fill="#F0A087"/>
<path d="M160.274 73.6748C160.258 73.6748 160.242 73.6709 160.228 73.664C160.175 73.6378 160.154 73.5732 160.179 73.5202C160.777 72.2894 160.716 70.6671 160.715 70.6509C160.713 70.5917 160.757 70.5417 160.816 70.5394C160.883 70.5371 160.924 70.5825 160.926 70.6417C160.929 70.7102 160.992 72.334 160.369 73.6155C160.35 73.6525 160.313 73.6748 160.274 73.6748Z" fill="#F0A087"/>
<path d="M152.796 35.5679C153.74 35.6856 154.589 35.371 156.514 37.5617C158.439 39.7525 159.362 46.7879 159.362 46.7879L152.408 48.5779C152.408 48.5779 151.414 42.0509 151.262 40.5748C151.01 38.1294 151.852 35.4494 152.796 35.5679Z" fill="#F27997"/>
<path d="M157.223 45.1387C157.221 45.1487 157.221 45.1587 157.221 45.1687C157.171 46.8156 156.456 48.3987 154.413 49.3779C154.413 49.3779 154.296 50.2525 154.16 51.3379C153.974 52.8348 153.75 54.7295 153.75 55.2587C153.75 56.1725 156.277 60.9295 156.003 61.311C155.729 61.6918 152.784 63.0625 146.491 63.0625C140.198 63.0625 138.025 61.6925 137.987 61.311C137.949 60.9302 140.241 56.1725 140.241 55.2587C140.241 54.7295 140.017 52.8348 139.831 51.3379C139.694 50.2533 139.577 49.3779 139.577 49.3779C138.123 48.681 137.34 47.6779 136.993 46.5633C136.993 46.5618 136.993 46.5618 136.993 46.5618C136.43 44.7518 137.301 42.5556 137.997 40.9964C139.124 38.4771 140.578 35.9033 141.671 35.4464C142.763 34.9894 146.099 34.7125 146.099 34.7125H147.892C147.892 34.7125 151.226 34.9894 152.319 35.4464C153.412 35.9033 155.159 38.571 156.285 41.0902C156.805 42.2541 157.259 43.7187 157.223 45.1387Z" fill="#F27997"/>
<path d="M146.882 38.6632C142.69 38.6632 142.719 35.3517 142.814 35.1417C142.908 34.9317 143.793 34.9779 144.136 34.7132C144.215 34.6517 144.267 34.5079 144.3 34.3225C144.416 33.7055 144.327 32.6294 144.327 32.6294H149.271C149.271 32.6294 149.194 33.5571 149.276 34.1855C149.309 34.4355 149.366 34.6379 149.464 34.714C149.806 34.9779 150.691 34.9325 150.786 35.1425C150.88 35.3517 151.076 38.6632 146.882 38.6632Z" fill="#F4CEBB"/>
<path d="M149.276 34.1855C148.562 34.514 147.635 34.714 146.624 34.714C145.761 34.714 144.96 34.5686 144.3 34.3232C144.416 33.7063 144.327 32.6301 144.327 32.6301H149.271C149.272 32.6294 149.195 33.5571 149.276 34.1855Z" fill="#F2B49F"/>
<path d="M172.406 17.5571C172.406 17.5571 173.457 23.2432 166.307 23.6309C166.307 23.6309 165.745 24.234 164.849 24.6271C163.913 25.0355 162.612 25.214 161.206 24.2279C158.456 22.3002 158.856 17.1363 159.256 15.0279C159.624 13.0902 158.966 8.03554 157.564 7.35631C157.562 7.35477 157.559 7.35477 157.556 7.354C157.434 7.29477 157.306 7.27093 157.174 7.28324L155.855 5.64785C155.855 5.64785 156.437 2.46477 158.5 1.14016C158.774 0.963235 159.076 0.819389 159.406 0.720158C161.375 0.130928 163.049 0.643235 164.156 1.834C164.895 2.62862 165.38 3.72554 165.529 5.00016C165.545 5.13247 165.559 5.26939 165.572 5.40939C165.861 8.50016 165.584 13.1848 167.29 14.4648C169.298 15.9702 171.655 14.3779 171.48 12.5025C171.48 12.5025 172.334 13.3332 172.762 14.4986C173.092 15.3955 173.167 16.4917 172.406 17.5571Z" fill="#5F3E3B"/>
<path d="M166.306 23.6301C166.306 23.6301 161.056 22.0732 161.39 17.4871C161.39 17.4871 163.29 21.8448 167.59 21.6117C171.89 21.3771 172.406 17.5563 172.406 17.5563C172.406 17.5563 173.457 23.2424 166.306 23.6301Z" fill="#523533"/>
<path d="M172.407 17.5563C172.407 17.5563 169.157 19.4893 166.822 16.057C166.822 16.057 171.366 19.047 172.761 14.4978C173.092 15.3955 173.168 16.4909 172.407 17.5563Z" fill="#523533"/>
<path d="M164.849 24.6248V24.6263C163.912 25.0356 162.612 25.214 161.206 24.2279C158.456 22.2994 158.855 17.1363 159.256 15.0271C159.624 13.0902 158.966 8.03479 157.564 7.35632C160.556 8.99555 159.624 16.3779 160.142 20.2279C160.687 24.2709 164.849 24.6248 164.849 24.6248Z" fill="#523533"/>
<path d="M167.29 14.4648C164.759 14.0102 165.766 6.80785 164.519 3.50785C163.27 0.207851 158.496 1.22939 158.5 1.14016C158.774 0.963235 159.076 0.819389 159.406 0.720158C161.375 0.130928 163.049 0.643235 164.156 1.834C164.895 2.62862 165.38 3.72554 165.529 5.00016C165.545 5.13247 165.559 5.26939 165.572 5.40939C165.861 8.50016 165.584 13.1855 167.29 14.4648Z" fill="#724C49"/>
<path d="M157.569 5.96632C157.569 5.96632 159.12 5.77862 159.799 5.93785C160.478 6.09785 161.014 6.4017 161.084 6.82401C161.154 7.24632 159.659 9.60478 159.199 9.58632C158.739 9.56785 157.048 8.1017 156.674 7.24401L157.569 5.96632Z" fill="#E36185"/>
<path d="M157.123 5.59553C157.123 5.59553 156.954 3.9786 156.653 3.32399C156.352 2.66937 155.949 2.19245 155.538 2.21552C155.128 2.2386 153.254 4.28168 153.374 4.74553C153.493 5.20937 155.241 6.60091 156.126 6.79091L157.123 5.59553Z" fill="#E36185"/>
<path d="M156.636 7.38944L155.889 6.7679C155.735 6.64021 155.71 6.40636 155.833 6.24559L156.589 5.25636C156.712 5.09559 156.936 5.06944 157.09 5.19713L157.838 5.81867C157.992 5.94636 158.017 6.18021 157.894 6.34098L157.137 7.33021C157.015 7.49098 156.79 7.51713 156.636 7.38944Z" fill="#F27997"/>
<path d="M137.273 11.5502C137.273 11.5502 135.96 15.4763 136.861 21.3656L139.577 22.4025L141.671 12.334L137.273 11.5502Z" fill="#523533"/>
<path d="M138.918 21.9655C138.606 21.0955 137.071 19.7317 135.944 21.1948C134.697 22.8148 136.214 27.2917 138.417 26.4932C138.964 26.2948 139.23 22.8355 138.918 21.9655Z" fill="#F4CEBB"/>
<path d="M138.408 22.6655C138.23 22.1693 137.354 21.3909 136.711 22.2255C136 23.1501 136.865 25.7047 138.122 25.2486C138.435 25.1355 138.586 23.1616 138.408 22.6655Z" fill="#F2B49F"/>
<path d="M154.372 21.9655C154.684 21.0955 156.219 19.7317 157.345 21.1948C158.592 22.8148 157.076 27.2917 154.873 26.4932C154.325 26.2948 154.06 22.8355 154.372 21.9655Z" fill="#F4CEBB"/>
<path d="M154.881 22.6655C155.059 22.1693 155.935 21.3909 156.578 22.2255C157.289 23.1501 156.424 25.7047 155.167 25.2486C154.854 25.1355 154.703 23.1616 154.881 22.6655Z" fill="#F2B49F"/>
<path d="M154.183 30.3086C152.326 33.3878 148.193 33.8755 146.548 33.8755C144.904 33.8755 141.029 33.2786 139.359 30.3847C138.418 28.754 138.243 26.694 138.271 25.0101C138.285 24.0617 138.365 23.2309 138.407 22.6655C138.527 21.0948 138.926 13.5955 141.039 11.074C143.152 8.55322 146.943 8.60399 146.943 8.60399C146.943 8.60399 150.466 8.45015 152.578 10.9717C154.691 13.4925 154.87 20.8532 154.979 22.9148C155.008 23.4486 155.131 24.1301 155.21 24.9148C155.368 26.4409 155.361 28.3548 154.183 30.3086Z" fill="#F4CEBB"/>
<path d="M153.757 21.3732C153.757 21.4455 153.755 21.5171 153.749 21.5886C153.661 23.0286 152.683 24.1632 151.489 24.1632C150.295 24.1632 149.317 23.0286 149.229 21.5886C149.224 21.5178 149.221 21.4455 149.221 21.3732C149.221 19.8332 150.237 18.584 151.489 18.584C152.741 18.584 153.757 19.8332 153.757 21.3732Z" fill="#333333"/>
<path d="M153.749 21.5886C153.661 23.0286 152.683 24.1632 151.489 24.1632C150.295 24.1632 149.317 23.0286 149.229 21.5886C149.317 20.1486 150.295 19.1632 151.489 19.1632C152.683 19.1632 153.661 20.1486 153.749 21.5886Z" fill="white"/>
<path d="M153.113 19.4862C153.113 19.4862 153.309 19.5001 153.494 19.4124C153.712 19.3093 153.929 19.1039 153.962 19.1385C153.994 19.1724 153.95 19.6293 153.854 19.9878C153.768 20.307 153.631 20.5331 153.631 20.5331L153.113 19.4862Z" fill="#333333"/>
<path d="M151.438 23.8325C152.386 23.8325 153.154 22.915 153.154 21.7832C153.154 20.6515 152.386 19.734 151.438 19.734C150.489 19.734 149.721 20.6515 149.721 21.7832C149.721 22.915 150.489 23.8325 151.438 23.8325Z" fill="#724C49"/>
<path d="M151.438 23.0395C151.992 23.0395 152.441 22.5036 152.441 21.8426C152.441 21.1815 151.992 20.6456 151.438 20.6456C150.883 20.6456 150.434 21.1815 150.434 21.8426C150.434 22.5036 150.883 23.0395 151.438 23.0395Z" fill="#523533"/>
<path d="M151.878 20.3548C151.878 20.6133 151.681 20.8233 151.438 20.8233C151.194 20.8233 150.997 20.614 150.997 20.3548C150.997 20.0964 151.194 19.8864 151.438 19.8864C151.681 19.8871 151.878 20.0964 151.878 20.3548Z" fill="white"/>
<path d="M149.454 16.6078C149.454 16.6078 149.608 15.9702 149.887 15.7394C150.416 15.3017 153.046 14.314 154.822 16.8825C154.822 16.8825 152.634 15.2209 149.454 16.6078Z" fill="#523533"/>
<path d="M139.792 21.3732C139.792 21.4455 139.794 21.5171 139.8 21.5886C139.888 23.0286 140.866 24.1632 142.06 24.1632C143.254 24.1632 144.232 23.0286 144.32 21.5886C144.325 21.5178 144.328 21.4455 144.328 21.3732C144.328 19.8332 143.312 18.584 142.06 18.584C140.808 18.584 139.792 19.8332 139.792 21.3732Z" fill="#333333"/>
<path d="M139.8 21.5886C139.888 23.0286 140.866 24.1632 142.06 24.1632C143.254 24.1632 144.232 23.0286 144.32 21.5886C144.232 20.1486 143.254 19.1632 142.06 19.1632C140.866 19.1632 139.888 20.1486 139.8 21.5886Z" fill="white"/>
<path d="M140.437 19.4862C140.437 19.4862 140.24 19.5001 140.056 19.4124C139.837 19.3093 139.62 19.1039 139.587 19.1385C139.555 19.1724 139.599 19.6293 139.695 19.9878C139.781 20.307 139.918 20.5331 139.918 20.5331L140.437 19.4862Z" fill="#333333"/>
<path d="M142.112 23.8325C143.06 23.8325 143.828 22.915 143.828 21.7832C143.828 20.6515 143.06 19.734 142.112 19.734C141.163 19.734 140.395 20.6515 140.395 21.7832C140.395 22.915 141.163 23.8325 142.112 23.8325Z" fill="#724C49"/>
<path d="M142.112 23.0395C142.666 23.0395 143.115 22.5036 143.115 21.8426C143.115 21.1815 142.666 20.6456 142.112 20.6456C141.557 20.6456 141.108 21.1815 141.108 21.8426C141.108 22.5036 141.557 23.0395 142.112 23.0395Z" fill="#523533"/>
<path d="M141.671 20.3548C141.671 20.6133 141.868 20.8233 142.112 20.8233C142.355 20.8233 142.553 20.614 142.553 20.3548C142.553 20.0964 142.355 19.8864 142.112 19.8864C141.868 19.8864 141.671 20.0964 141.671 20.3548Z" fill="white"/>
<path d="M144.095 16.6078C144.095 16.6078 143.941 15.9702 143.662 15.7394C143.133 15.3017 140.503 14.314 138.727 16.8825C138.727 16.8825 140.915 15.2209 144.095 16.6078Z" fill="#523533"/>
<path d="M145.197 25.9255C145.187 25.9255 145.175 25.9239 145.164 25.9208C145.09 25.9024 145.044 25.8262 145.062 25.7509C145.078 25.6901 145.439 24.2585 146.522 24.2585C147.59 24.2585 148.068 25.5239 148.088 25.5778C148.114 25.6509 148.078 25.7316 148.006 25.7585C147.934 25.7862 147.855 25.7485 147.828 25.6762C147.823 25.6647 147.398 24.5401 146.523 24.5401C145.657 24.5401 145.336 25.8055 145.333 25.8185C145.317 25.8824 145.26 25.9255 145.197 25.9255Z" fill="#F0A087"/>
<path d="M146.523 24.5401C146.503 24.5401 146.482 24.5355 146.463 24.5262C146.394 24.4932 146.364 24.4093 146.397 24.3386C147.354 22.2878 146.048 20.6601 145.992 20.5916C145.943 20.5316 145.951 20.4432 146.01 20.3932C146.068 20.3432 146.156 20.3516 146.205 20.4109C146.22 20.4286 147.681 22.2416 146.647 24.4586C146.624 24.5101 146.575 24.5401 146.523 24.5401Z" fill="#F0A087"/>
<path d="M157.346 21.1963C156.052 19.9101 154.806 21.3732 154.806 21.3732C154.781 21.1263 154.717 18.5955 154.245 16.4886C153.738 14.2232 153.099 12.8486 152.829 12.3332C152.773 12.2248 152.734 12.1548 152.712 12.1217C152.709 12.1132 152.706 12.1071 152.704 12.1048C152.703 12.1017 152.701 12.1001 152.701 12.1001C152.698 12.1048 152.696 12.1086 152.691 12.1132C150.247 15.6348 145.023 15.4632 145.023 15.4632C149.093 13.7163 149.838 10.6532 149.897 10.3878C149.898 10.3748 149.9 10.3694 149.9 10.3694C149.895 10.3778 149.89 10.3848 149.885 10.394C149.532 10.9394 146.32 14.2878 142.42 14.8517C138.459 15.4225 135.812 14.3048 134.344 11.4617C133.838 10.484 133.746 9.50784 133.876 8.60861C134.206 6.31091 135.976 4.51937 135.976 4.51937C135.494 6.3263 135.8 7.98476 138.394 7.88399C138.448 7.88245 138.5 7.87861 138.552 7.87399H138.554C141.434 7.61245 142.206 3.40245 148.403 2.51399C152.383 1.94322 154.805 4.30399 155.911 5.79707C156.396 6.45091 156.629 6.93784 156.629 6.93784C156.629 6.93784 158.222 7.07784 159.068 10.2709C159.193 10.7401 159.302 11.2771 159.387 11.8878C160.051 16.6532 157.346 21.1963 157.346 21.1963Z" fill="#5F3E3B"/>
<path d="M149.901 10.3701C149.634 10.8324 146.383 14.2793 142.421 14.8516C138.46 15.4224 135.812 14.3047 134.344 11.4616C133.839 10.4839 133.747 9.50775 133.877 8.60852C133.91 8.90083 135.003 18.0547 149.901 10.3701Z" fill="#523533"/>
<path d="M157.346 21.1963C156.052 19.9102 154.806 21.3733 154.806 21.3733C154.781 21.1263 154.717 18.5956 154.245 16.4886C153.738 14.2233 153.099 12.8486 152.829 12.3333C153.325 13.1925 155.222 16.0917 157.795 15.2394C159.282 14.7471 159.385 12.5148 159.068 10.2694C159.193 10.7386 159.302 11.2756 159.387 11.8863C160.051 16.6533 157.346 21.1963 157.346 21.1963Z" fill="#523533"/>
<path d="M155.911 5.79707L155.819 5.86245C155.819 5.86245 153.345 3.46861 150.259 3.19938C144.61 2.70399 140.142 8.36092 138.554 7.87399C141.434 7.61246 142.206 3.40245 148.403 2.51399C152.383 1.94322 154.805 4.30399 155.911 5.79707Z" fill="#724C49"/>
<path d="M152.691 12.1139C150.247 15.6355 145.023 15.4639 145.023 15.4639C149.093 13.717 149.838 10.6539 149.897 10.3885C149.863 10.627 149.464 13.2101 147.786 14.4639C147.889 14.4278 150.822 13.7232 152.691 12.1139Z" fill="#523533"/>
<path d="M154.356 24.9779C154.338 24.8433 153.912 21.6764 155.046 20.8318L155.253 21.1164C154.45 21.7141 154.583 24.071 154.702 24.9279L154.356 24.9779Z" fill="white"/>
<path d="M139.228 24.9625L138.879 24.9433C138.881 24.9125 139.034 21.8394 138.146 20.9486L138.391 20.6979C139.391 21.7002 139.234 24.8302 139.228 24.9625Z" fill="white"/>
<path d="M154.183 30.3086C152.326 33.3878 148.193 33.8755 146.548 33.8755C144.904 33.8755 141.029 33.2786 139.359 30.3848C138.418 28.754 138.243 26.694 138.271 25.0102L138.299 24.954C138.299 24.954 145.078 23.544 146.986 23.6309C148.69 23.7086 154.082 24.7032 155.211 24.9156C155.368 26.4409 155.361 28.3548 154.183 30.3086Z" fill="#C7FFFC"/>
<path d="M140.604 31.9817C140.506 31.8424 140.409 31.6909 140.316 31.5317L140.465 31.4409C140.557 31.5963 140.651 31.744 140.746 31.8794L140.604 31.9817ZM153.074 31.7686L152.934 31.6632C152.958 31.6301 152.983 31.5963 153.006 31.5624L153.149 31.6648C153.124 31.7001 153.099 31.7348 153.074 31.7686ZM153.44 31.2194L153.292 31.1271C153.382 30.9786 153.469 30.8255 153.55 30.6724L153.703 30.7555C153.621 30.9117 153.533 31.0678 153.44 31.2194ZM140.061 31.0617C139.982 30.9063 139.906 30.744 139.834 30.5786L139.993 30.5071C140.064 30.6694 140.139 30.8286 140.217 30.9809L140.061 31.0617ZM153.938 30.2748L153.779 30.2017C153.849 30.0448 153.917 29.8824 153.98 29.7178L154.142 29.7817C154.078 29.9486 154.009 30.1148 153.938 30.2748ZM139.631 30.0855C139.568 29.9201 139.508 29.7524 139.451 29.584L139.615 29.5271C139.672 29.6932 139.731 29.8586 139.794 30.0217L139.631 30.0855ZM154.319 29.2771L154.152 29.2224C154.206 29.054 154.255 28.8855 154.299 28.7186L154.467 28.764C154.423 28.934 154.374 29.1055 154.319 29.2771ZM139.289 29.0763C139.238 28.9048 139.191 28.7332 139.147 28.5624L139.316 28.5178C139.359 28.6863 139.406 28.8563 139.456 29.0255L139.289 29.0763ZM154.589 28.244L154.419 28.2078C154.455 28.0332 154.486 27.8601 154.513 27.6909L154.685 27.7186C154.658 27.8909 154.626 28.0663 154.589 28.244ZM139.023 28.044C138.985 27.8678 138.949 27.6932 138.917 27.5217L139.089 27.4894C139.12 27.6586 139.155 27.8317 139.193 28.0055L139.023 28.044ZM154.753 27.1886L154.58 27.1701C154.599 26.9901 154.612 26.8148 154.621 26.6463L154.794 26.6555C154.787 26.8271 154.772 27.0055 154.753 27.1886ZM138.83 26.9948C138.803 26.8124 138.781 26.6355 138.764 26.4648L138.938 26.4463C138.954 26.614 138.976 26.7886 139.003 26.9686L138.83 26.9948ZM154.634 26.1209C154.633 25.9409 154.627 25.7648 154.616 25.5971L154.79 25.5848C154.802 25.7563 154.808 25.9363 154.809 26.1201L154.634 26.1209ZM138.723 25.9317C138.717 25.8055 138.714 25.6855 138.714 25.5717L138.724 25.4355L138.768 25.3432L138.81 25.3348L138.848 25.4309L138.907 25.4601L138.889 25.4955L138.888 25.5717C138.888 25.6824 138.891 25.8001 138.897 25.9232L138.723 25.9317ZM154.356 25.4117L153.84 25.3155L153.871 25.1417L154.387 25.2378L154.356 25.4117ZM139.377 25.3978L139.343 25.2248C139.489 25.1948 139.663 25.1601 139.858 25.1217L139.891 25.2948C139.697 25.3332 139.524 25.3678 139.377 25.3978ZM153.325 25.2209L152.81 25.1278L152.84 24.954L153.355 25.0478L153.325 25.2209ZM140.406 25.1932L140.372 25.0194L140.887 24.9201L140.919 25.094L140.406 25.1932ZM152.294 25.0355L151.778 24.9448L151.808 24.7709L152.324 24.8617L152.294 25.0355ZM141.435 24.9971L141.404 24.8232C141.572 24.7917 141.744 24.7601 141.92 24.7286L141.95 24.9024C141.775 24.9348 141.603 24.9663 141.435 24.9971ZM151.262 24.8563L150.746 24.7686L150.775 24.594L151.292 24.6817L151.262 24.8563ZM142.466 24.8101L142.436 24.6363C142.607 24.6063 142.779 24.5763 142.953 24.5463L142.981 24.7209C142.809 24.7501 142.637 24.7801 142.466 24.8101ZM150.229 24.684C150.056 24.6555 149.883 24.6278 149.712 24.6009L149.739 24.4263C149.91 24.4532 150.083 24.4809 150.257 24.5094L150.229 24.684ZM143.499 24.6348L143.472 24.4601C143.645 24.4317 143.818 24.404 143.99 24.3778L144.016 24.5524C143.845 24.5786 143.672 24.6063 143.499 24.6348ZM149.195 24.5209C149.018 24.494 148.845 24.4686 148.677 24.4448L148.702 24.2694C148.869 24.2932 149.043 24.3186 149.221 24.3455L149.195 24.5209ZM144.533 24.4748L144.508 24.3001C144.686 24.274 144.86 24.2501 145.029 24.2278L145.051 24.4032C144.883 24.4248 144.71 24.4486 144.533 24.4748ZM148.159 24.3748C147.974 24.3509 147.801 24.3301 147.641 24.3117L147.66 24.1363C147.821 24.154 147.996 24.1755 148.182 24.1994L148.159 24.3748ZM145.57 24.3386L145.551 24.1632C145.736 24.1424 145.911 24.1248 146.075 24.1109L146.089 24.2871C145.927 24.3009 145.753 24.3186 145.57 24.3386ZM147.122 24.264C147.068 24.2601 147.017 24.2571 146.968 24.2548C146.914 24.2524 146.854 24.2532 146.792 24.2509C146.734 24.2509 146.672 24.2524 146.608 24.2548L146.602 24.0786C146.671 24.0763 146.732 24.0732 146.8 24.0748C146.863 24.0748 146.921 24.0763 146.976 24.0786C147.025 24.0809 147.078 24.084 147.134 24.0878L147.122 24.264Z" fill="#79D3D3"/>
<path d="M153.193 30.7002C151.585 33.441 148.004 33.8756 146.578 33.8756C145.154 33.8756 141.797 33.344 140.35 30.7679C139.534 29.3163 139.383 27.4825 139.407 25.984L139.432 25.934C139.432 25.934 145.305 24.6794 146.957 24.7563C148.434 24.8256 153.106 25.7109 154.084 25.8994C154.22 27.2579 154.214 28.9609 153.193 30.7002Z" fill="#94EAE7"/>
<path d="M141.776 26.3647C141.776 26.3647 144.576 25.6709 146.989 25.7071C149.403 25.744 151.982 26.3647 151.982 26.3647C151.982 26.3647 147.187 26.5509 141.776 26.3647Z" fill="#67CEC9"/>
<path d="M141.776 31.2294C141.776 31.2294 144.576 31.8264 146.989 31.7941C149.403 31.7625 151.982 31.2294 151.982 31.2294C151.982 31.2294 147.187 31.0694 141.776 31.2294Z" fill="#67CEC9"/>
<path d="M141.539 28.7233H152.226C152.226 28.7233 149.561 29.4471 146.989 29.5348C144.416 29.6225 141.539 28.7233 141.539 28.7233Z" fill="#67CEC9"/>
<path d="M157.221 45.1686C157.171 46.8155 156.456 48.3986 154.413 49.3778C154.413 49.3778 154.296 50.2524 154.16 51.3378C154.16 51.3378 149.06 49.8917 146.491 49.8917C143.941 49.8917 139.893 51.3147 139.831 51.3378C139.694 50.2532 139.577 49.3778 139.577 49.3778C138.123 48.6809 137.34 47.6778 136.993 46.5632C136.993 46.5632 138.858 49.054 142.157 48.887C144.664 48.7601 145.788 48.0409 146.882 48.0909C147.976 48.1409 151.879 49.167 154.248 48.1963C156.509 47.2686 157.174 45.717 157.221 45.1686Z" fill="#E36185"/>
<path d="M138.472 106.36C138.472 106.36 140.502 107.279 142.524 106.162C142.524 106.162 143.674 107.842 143.36 108.528C143.046 109.214 137.782 109.467 137.713 108.528C137.644 107.589 138.472 106.36 138.472 106.36Z" fill="#7B7B7B"/>
<path d="M155.55 106.36C155.55 106.36 153.521 107.279 151.499 106.162C151.499 106.162 150.348 107.842 150.663 108.528C150.976 109.214 156.241 109.467 156.31 108.528C156.379 107.589 155.55 106.36 155.55 106.36Z" fill="#7B7B7B"/>
<path d="M19.2834 113.475C29.9333 113.475 38.5667 111.359 38.5667 108.749C38.5667 106.138 29.9333 104.022 19.2834 104.022C8.63345 104.022 0 106.138 0 108.749C0 111.359 8.63345 113.475 19.2834 113.475Z" fill="#ACACAC"/>
<path d="M24.19 105.669C24.19 105.669 22.5044 109.137 23.0789 109.897C23.6534 110.658 29.5504 110.813 29.9997 110.081C30.5651 109.162 29.1482 105.669 29.1482 105.669H24.19Z" fill="#7B7B7B"/>
<path d="M9.54757 105.669C9.54757 105.669 7.86194 109.137 8.43647 109.897C9.01099 110.658 14.908 110.813 15.3573 110.081C15.9227 109.162 14.5058 105.669 14.5058 105.669H9.54757Z" fill="#7B7B7B"/>
<path d="M9.78135 65.1495C9.78135 65.1495 8.83873 95.0356 9.43982 106.025C9.43982 106.025 11.5649 106.622 14.6766 106.115C14.6766 106.115 18.9191 76.4602 18.9942 76.4679C18.9942 76.4679 19.4238 76.611 19.8898 76.4679C19.9626 76.4456 23.9729 106.137 23.9729 106.137C27.5984 106.376 29.2438 105.946 29.2438 105.946C29.8449 94.9564 29.0533 64.6356 29.0533 64.6356L9.78135 65.1495Z" fill="#626262"/>
<path d="M35.0376 65.7786C35.0376 65.7786 36.5768 67.2655 36.7225 69.1509C36.8682 71.0363 36.0501 71.664 35.7009 71.277C35.7009 71.277 35.1719 72.9917 34.5132 72.6832C34.5132 72.6832 33.8924 73.5432 33.1683 72.924C33.1683 72.924 32.6052 73.5517 32.1513 72.9901C31.8561 72.6247 32.3988 71.2655 32.4853 70.5832C32.5718 69.9009 32.634 69.217 32.2386 69.094C31.5601 68.8832 31.0243 70.897 30.6114 71.0578C30.1986 71.2186 29.8586 70.9563 29.9595 70.364C30.0604 69.7709 30.301 67.7494 30.575 67.0124C30.849 66.2755 31.2452 65.5155 31.2452 65.5155C31.2452 65.5155 29.7212 62.2847 29.432 60.2886C29.1436 58.2924 28.7778 55.2232 28.6237 54.6986C28.4697 54.174 26.6687 46.2709 26.4433 43.884C26.2019 41.3363 25.6965 36.7394 28.8127 36.4071C30.8809 36.1871 32.3676 38.5955 32.612 41.3117C32.8564 44.0278 33.6017 52.2078 33.6859 52.6086C34.029 54.2378 34.5982 58.5724 34.7469 60.5486C34.8964 62.5247 35.0376 65.7786 35.0376 65.7786Z" fill="#F4CEBB"/>
<path d="M35.7017 71.3856C35.6926 71.3856 35.6835 71.3848 35.6744 71.3818C35.6167 71.3664 35.5825 71.3071 35.597 71.2487C35.94 69.9079 35.7434 68.8856 35.7419 68.8756C35.7305 68.8164 35.7677 68.7587 35.8262 68.7472C35.8846 68.7349 35.9415 68.7733 35.9529 68.8326C35.9613 68.8756 36.1624 69.911 35.8057 71.3048C35.7928 71.3533 35.7495 71.3856 35.7017 71.3856Z" fill="#F0A087"/>
<path d="M34.5139 72.7924C34.501 72.7924 34.4881 72.7901 34.4752 72.7855C34.4198 72.7639 34.3918 72.7008 34.413 72.6447C35.0923 70.8431 34.7591 69.657 34.7553 69.6447C34.7386 69.587 34.7712 69.5262 34.8281 69.5093C34.8851 69.4916 34.945 69.5247 34.9617 69.5824C34.9769 69.6331 35.3215 70.8462 34.6141 72.7231C34.5982 72.7655 34.5572 72.7924 34.5139 72.7924Z" fill="#F0A087"/>
<path d="M33.1683 73.0331C33.1509 73.0331 33.1327 73.0285 33.116 73.0193C33.0636 72.9901 33.0454 72.9231 33.0742 72.8708C33.7391 71.6631 33.7337 70.0355 33.7337 70.0193C33.733 69.9593 33.7808 69.9093 33.8408 69.9093H33.8415C33.9007 69.9093 33.9485 69.9578 33.9493 70.0178C33.95 70.087 33.9554 71.7201 33.2632 72.9778C33.2435 73.0131 33.2063 73.0331 33.1683 73.0331Z" fill="#F0A087"/>
<path d="M26.2756 48.8986L33.7436 47.764C33.7436 47.764 34.0616 35.7009 28.9562 36.0548C23.1563 36.4563 26.2756 48.8986 26.2756 48.8986Z" fill="#5D86C6"/>
<path d="M4.21825 65.4971C4.21825 65.4971 2.64495 66.9471 2.45597 68.8286C2.26699 70.7102 3.07072 71.3563 3.42818 70.9779C3.42818 70.9779 3.9177 72.7048 4.5833 72.4117C4.5833 72.4117 5.18363 73.2863 5.92209 72.6848C5.92209 72.6848 6.47081 73.3256 6.9368 72.7748C7.24038 72.4163 6.72885 71.0448 6.65827 70.3602C6.58768 69.6756 6.54139 68.9909 6.93908 68.8771C7.62213 68.6817 8.11165 70.7086 8.52072 70.8794C8.9298 71.0502 9.27588 70.7963 9.1886 70.2009C9.10132 69.6056 8.90703 67.5794 8.6505 66.8356C8.39398 66.0917 8.01526 65.3233 8.01526 65.3233C8.01526 65.3233 9.61361 62.1294 9.94755 60.1402C10.2822 58.1509 10.7186 55.0917 10.8841 54.5709C11.0503 54.0502 13.0327 46.1917 13.3127 43.8109C13.6125 41.2694 14.2235 36.6856 11.1163 36.2802C9.05426 36.0109 7.51208 38.384 7.20547 41.094C6.89885 43.8032 5.96459 51.964 5.87124 52.3625C5.491 53.9832 4.82161 58.3032 4.62732 60.2756C4.43455 62.2471 4.21825 65.4971 4.21825 65.4971Z" fill="#F4CEBB"/>
<path d="M3.42819 71.0871C3.37961 71.0871 3.33484 71.0532 3.32345 71.0032C2.99862 69.6017 3.22327 68.5717 3.23314 68.5286C3.24604 68.4694 3.30372 68.434 3.36216 68.4463C3.41984 68.4594 3.45627 68.5178 3.44337 68.5771C3.44109 68.5871 3.22099 69.604 3.53368 70.9532C3.54734 71.0125 3.51167 71.0709 3.45323 71.0848C3.44488 71.0863 3.43654 71.0871 3.42819 71.0871Z" fill="#F0A087"/>
<path d="M4.5833 72.5208C4.53928 72.5208 4.49754 72.4932 4.4816 72.4485C3.81752 70.5555 4.19016 69.3509 4.2061 69.3009C4.22432 69.2439 4.28503 69.2124 4.34195 69.2309C4.39812 69.2493 4.42923 69.3109 4.41102 69.3678C4.40722 69.3793 4.04672 70.5585 4.68424 72.3747C4.70397 72.4316 4.67513 72.4939 4.61897 72.5139C4.60759 72.5193 4.59544 72.5208 4.5833 72.5208Z" fill="#F0A087"/>
<path d="M5.92207 72.7939C5.88337 72.7939 5.84618 72.7732 5.82644 72.7355C5.16312 71.4616 5.20638 69.8285 5.20866 69.7601C5.21018 69.7001 5.26331 69.6532 5.31947 69.6547C5.37867 69.657 5.42572 69.707 5.42344 69.767C5.42268 69.7832 5.38018 71.4116 6.01694 72.6332C6.04502 72.6862 6.02453 72.7524 5.97216 72.7808C5.95622 72.7901 5.93953 72.7939 5.92207 72.7939Z" fill="#F0A087"/>
<path d="M13.3666 48.8286L5.92665 47.5178C5.92665 47.5178 5.88642 35.4509 10.982 35.9247C16.7713 36.4632 13.3666 48.8286 13.3666 48.8286Z" fill="#5D86C6"/>
<path d="M24.1475 34.0121C23.0463 36.3536 21.139 37.3698 19.4443 37.3698C17.7496 37.3698 15.8917 36.7667 14.4193 34.1598C14.984 33.9406 15.5008 33.7121 15.8294 33.6006C15.9053 33.5752 15.966 33.5136 16.0138 33.4252C16.3918 32.7282 15.9698 30.349 15.9698 30.349H22.7404C22.7404 30.349 22.4786 32.3544 22.7472 33.2206C22.8079 33.419 22.8983 33.5536 23.022 33.6006C23.299 33.7044 23.4872 33.8036 24.1475 34.0121Z" fill="#F4CEBB"/>
<path d="M22.748 33.2202C21.9276 33.9102 20.6639 34.3525 19.2477 34.3525C17.9765 34.3525 16.8282 33.9956 16.0138 33.4241C16.3918 32.7271 15.9698 30.3479 15.9698 30.3479H22.7404C22.7404 30.3487 22.4786 32.3533 22.748 33.2202Z" fill="#F2B49F"/>
<path d="M28.9144 65.3224C28.2071 65.7339 21.6247 66.1916 19.2667 66.1916C16.9086 66.1916 10.727 65.877 10.0197 65.4655C9.31232 65.0539 10.5934 55.0278 10.5858 52.7186C10.5843 51.8263 10.8219 47.0894 10.4819 44.2717C10.1419 41.454 9.33281 36.544 9.74796 36.3332C10.1631 36.1224 14.08 34.2847 14.5195 34.1186C15.9873 36.6924 17.7587 37.4217 19.4435 37.3694C21.7173 37.2986 23.4371 35.3432 24.1467 34.0124C24.2993 33.7263 29.2438 35.9086 29.2438 35.9086C29.2438 35.9086 28.9994 41.424 28.9182 45.0009C28.8537 47.8401 28.859 51.9532 28.8484 52.8455C28.812 55.8155 29.6225 64.9109 28.9144 65.3224Z" fill="#5D86C6"/>
<path d="M10.0705 9.4071C10.0705 9.4071 7.57052 12.5886 8.90475 20.9094L11.0571 21.5025L13.2831 11.2356L10.0705 9.4071Z" fill="#523533"/>
<path d="M19.0883 8.13317C19.0883 8.13317 22.6129 7.97932 24.7266 10.5016C26.8402 13.0239 27.0201 20.3885 27.1286 22.4516C27.181 23.4485 27.7715 27.4609 26.331 29.8493C24.4738 32.9293 20.3376 33.4178 18.6922 33.4178C17.0468 33.4178 13.4524 32.8201 11.7812 29.9255C10.3081 27.3739 10.428 23.7739 10.5479 22.2024C10.6678 20.6301 11.0662 13.127 13.1799 10.6047C15.2936 8.0824 19.0883 8.13317 19.0883 8.13317Z" fill="#F4CEBB"/>
<path d="M25.9052 20.9093C25.9052 20.9816 25.903 21.0539 25.8976 21.1247C25.8096 22.5655 24.8306 23.7009 23.636 23.7009C22.4414 23.7009 21.4631 22.5655 21.3743 21.1247C21.369 21.0539 21.3667 20.9816 21.3667 20.9093C21.3667 19.3686 22.3829 18.1178 23.636 18.1178C24.889 18.1178 25.9052 19.3686 25.9052 20.9093Z" fill="#333333"/>
<path d="M25.8976 21.1247C25.8096 22.5655 24.8306 23.7008 23.636 23.7008C22.4414 23.7008 21.4631 22.5655 21.3743 21.1247C21.4624 19.6839 22.4414 18.6978 23.636 18.6978C24.8306 18.6978 25.8096 19.6839 25.8976 21.1247Z" fill="white"/>
<path d="M23.5844 23.371C24.5329 23.371 25.3019 22.4528 25.3019 21.3202C25.3019 20.1876 24.5329 19.2694 23.5844 19.2694C22.6358 19.2694 21.8669 20.1876 21.8669 21.3202C21.8669 22.4528 22.6358 23.371 23.5844 23.371Z" fill="#724C49"/>
<path d="M23.5844 22.5763C24.1385 22.5763 24.5877 22.0401 24.5877 21.3786C24.5877 20.7171 24.1385 20.1809 23.5844 20.1809C23.0302 20.1809 22.581 20.7171 22.581 21.3786C22.581 22.0401 23.0302 22.5763 23.5844 22.5763Z" fill="#523533"/>
<path d="M23.5843 20.3594C23.8279 20.3594 24.0253 20.1497 24.0253 19.8909C24.0253 19.6322 23.8279 19.4225 23.5843 19.4225C23.3408 19.4225 23.1434 19.6322 23.1434 19.8909C23.1434 20.1497 23.3408 20.3594 23.5843 20.3594Z" fill="white"/>
<path d="M11.933 20.9093C11.933 20.9816 11.9353 21.0539 11.9406 21.1247C12.0286 22.5655 13.0077 23.7009 14.2022 23.7009C15.3968 23.7009 16.3751 22.5655 16.4639 21.1247C16.4692 21.0539 16.4715 20.9816 16.4715 20.9093C16.4715 19.3686 15.4553 18.1178 14.2022 18.1178C12.9492 18.1178 11.933 19.3686 11.933 20.9093Z" fill="#333333"/>
<path d="M11.9398 21.1247C12.0279 22.5655 13.0069 23.7008 14.2015 23.7008C15.3961 23.7008 16.3743 22.5655 16.4631 21.1247C16.3751 19.6839 15.3961 18.6978 14.2015 18.6978C13.0069 18.6978 12.0286 19.6839 11.9398 21.1247Z" fill="white"/>
<path d="M14.2538 23.371C15.2024 23.371 15.9713 22.4528 15.9713 21.3202C15.9713 20.1876 15.2024 19.2694 14.2538 19.2694C13.3053 19.2694 12.5363 20.1876 12.5363 21.3202C12.5363 22.4528 13.3053 23.371 14.2538 23.371Z" fill="#724C49"/>
<path d="M14.2538 22.5763C14.8079 22.5763 15.2571 22.0401 15.2571 21.3786C15.2571 20.7171 14.8079 20.1809 14.2538 20.1809C13.6997 20.1809 13.2505 20.7171 13.2505 21.3786C13.2505 22.0401 13.6997 22.5763 14.2538 22.5763Z" fill="#523533"/>
<path d="M13.8121 19.8909C13.8121 20.1494 14.0094 20.3594 14.2531 20.3594C14.4967 20.3594 14.694 20.1494 14.694 19.8909C14.694 19.6325 14.4967 19.4225 14.2531 19.4225C14.0102 19.4225 13.8121 19.6317 13.8121 19.8909Z" fill="white"/>
<path d="M21.6316 16.4163C21.6316 16.4163 21.7485 15.4886 22.0027 15.1371C22.4869 14.4694 25.6206 13.6779 26.7666 16.4163C26.7659 16.4163 24.278 14.8648 21.6316 16.4163Z" fill="#523533"/>
<path d="M16.2066 16.4163C16.2066 16.4163 16.0897 15.4886 15.8355 15.1371C15.3513 14.4694 12.2176 13.6779 11.0716 16.4163C11.0716 16.4163 13.5602 14.8648 16.2066 16.4163Z" fill="#523533"/>
<path d="M17.3412 25.4641C17.3299 25.4641 17.3192 25.4625 17.3078 25.4602C17.2335 25.4418 17.1879 25.3648 17.2061 25.2895C17.2213 25.2287 17.5833 23.7964 18.6671 23.7964C19.7365 23.7964 20.2138 25.0625 20.2336 25.1164C20.2601 25.1895 20.2237 25.2702 20.1516 25.2972C20.0803 25.3241 19.9998 25.2872 19.9733 25.2148C19.9687 25.2033 19.5429 24.0779 18.6671 24.0779C17.8012 24.0779 17.4794 25.3441 17.4763 25.3572C17.4604 25.421 17.4035 25.4641 17.3412 25.4641Z" fill="#F0A087"/>
<path d="M18.6671 24.0787C18.6474 24.0787 18.6269 24.0741 18.6079 24.0648C18.5389 24.0317 18.5093 23.9479 18.5419 23.8771C19.4997 21.8248 18.1928 20.1964 18.1366 20.1279C18.0881 20.0679 18.0956 19.9794 18.1541 19.9294C18.2133 19.8794 18.3006 19.8871 18.3499 19.9471C18.3651 19.9648 19.8276 21.7787 18.7931 23.9971C18.7688 24.0487 18.7187 24.0787 18.6671 24.0787Z" fill="#F0A087"/>
<path d="M31.9962 13.3823C31.9484 13.8823 31.8823 14.3746 31.8019 14.8561C31.2198 18.3354 29.9296 21.1754 29.9296 21.1754C28.7077 19.1431 26.8422 21.1754 26.8422 21.1754C27.293 16.1815 25.064 10.9438 25.064 10.9438C24.4781 11.6554 23.4292 11.9923 23.4292 11.9923C23.9551 11.4969 23.8056 10.5438 23.8056 10.5438C23.3548 11.4208 21.3679 11.8777 21.3679 11.8777C22.0115 11.4577 22.0388 10.1254 22.0388 10.1254C22.0388 10.1254 20.3479 11.8007 18.77 11.8007C17.1906 11.8007 15.7577 9.98844 15.7577 9.98844C15.7198 10.5223 16.4651 11.8392 16.4651 11.8392C15.1308 11.7123 13.5947 10.4069 13.4437 10.2884C13.5667 10.91 14.2034 11.8392 14.2034 11.8392C6.89322 11.0969 7.35238 4.1846 7.35238 4.1846C7.35238 4.1846 7.35238 4.18613 7.3539 4.18921C7.96258 5.72767 10.6257 5.89844 10.6257 5.89844L10.6242 5.8969C10.6227 5.8969 10.6227 5.8969 10.6212 5.8969C7.85405 4.12306 9.17006 0.528442 9.17006 0.528442C9.84629 4.01306 13.9605 3.95614 13.9605 3.95614C12.3827 2.92767 12.7766 0.528442 12.7766 0.528442C16.4643 4.89844 26.767 0.671519 29.16 2.9846C31.2175 4.97383 29.8506 7.99306 29.7998 8.10306C29.7983 8.1046 29.7983 8.10614 29.7983 8.10614C29.7983 8.10614 32.3901 9.26921 31.9962 13.3823Z" fill="#5F3E3B"/>
<path d="M31.8007 14.8571C31.2186 18.3363 29.9284 21.1763 29.9284 21.1763C28.7065 19.144 26.841 21.1763 26.841 21.1763C27.2918 16.1825 25.0628 10.9448 25.0628 10.9448C24.4769 11.6563 23.428 11.9932 23.428 11.9932C23.9539 11.4979 23.8044 10.5448 23.8044 10.5448C23.3536 11.4217 21.3667 11.8786 21.3667 11.8786C22.0103 11.4586 22.0376 10.1263 22.0376 10.1263C22.0376 10.1263 20.3467 11.8017 18.7688 11.8017C17.1894 11.8017 15.7565 9.98939 15.7565 9.98939C15.7186 10.5232 16.4639 11.8402 16.4639 11.8402C15.1297 11.7132 13.5935 10.4079 13.4425 10.2894C13.5655 10.9109 14.2022 11.8402 14.2022 11.8402C6.89203 11.0979 7.35119 4.18555 7.35119 4.18555C7.35119 4.18555 7.35119 4.18709 7.35271 4.19016C7.38762 4.34555 8.40385 8.72862 12.2692 10.2509C12.2692 10.2509 11.81 8.94555 11.9406 8.10709C11.9406 8.10709 14.2978 10.2648 15.1152 10.4979C15.1152 10.4979 14.3829 9.17401 14.5233 8.10709C14.5233 8.10709 17.446 10.8479 18.8872 10.8309C20.3285 10.8125 22.6956 8.10709 22.6956 8.10709C22.6956 8.10709 22.8603 10.3332 22.5803 10.8309C22.5803 10.8309 24.1331 9.4417 24.3585 8.87016C24.3585 8.87016 24.4898 10.1794 24.1991 10.8525C24.1991 10.8525 25.2601 10.2986 25.6267 9.55555C25.6267 9.55555 27.2334 14.954 30.9811 14.8971C31.2687 14.8932 31.5419 14.8786 31.8007 14.8571Z" fill="#523533"/>
<path d="M29.7986 8.10465C29.8267 7.98311 30.572 4.79157 28.4166 3.61465C26.2187 2.41465 15.2276 5.12849 12.7762 0.530029C16.4639 4.90003 26.7666 0.673106 29.1596 2.98618C31.2163 4.97542 29.8495 7.99465 29.7986 8.10465Z" fill="#724C49"/>
<path d="M9.22502 2.09994C9.22502 2.09994 9.37301 4.64071 10.623 5.89764C10.6215 5.89764 10.6215 5.89764 10.62 5.89764C7.85284 4.12379 9.16886 0.529175 9.16886 0.529175C9.84508 4.01379 13.9593 3.95687 13.9593 3.95687C13.9593 3.95687 11.1975 4.58533 9.22502 2.09994Z" fill="#724C49"/>
<path d="M11.3349 21.5017C11.023 20.6317 9.48764 19.2678 8.36136 20.7309C7.11441 22.3509 8.63079 26.8278 10.834 26.0294C11.382 25.8301 11.6469 22.3717 11.3349 21.5017Z" fill="#F4CEBB"/>
<path d="M10.8257 22.2016C10.6473 21.7055 9.7715 20.927 9.12867 21.7616C8.41753 22.6862 9.28273 25.2409 10.5396 24.7847C10.8522 24.6716 11.0033 22.6978 10.8257 22.2016Z" fill="#F2B49F"/>
<path d="M26.7886 21.5017C27.1005 20.6317 28.6359 19.2678 29.7622 20.7309C31.0091 22.3509 29.4928 26.8278 27.2895 26.0294C26.7423 25.8301 26.4767 22.3717 26.7886 21.5017Z" fill="#F4CEBB"/>
<path d="M27.2986 22.2016C27.477 21.7055 28.3528 20.927 28.9956 21.7616C29.7068 22.6862 28.8416 25.2409 27.5848 24.7847C27.2713 24.6716 27.1203 22.6978 27.2986 22.2016Z" fill="#F2B49F"/>
<path d="M26.5108 24.6556C26.4918 24.521 26.0668 21.3541 27.2007 20.5103L27.4071 20.7949C26.6042 21.3926 26.737 23.7487 26.8561 24.6064L26.5108 24.6556Z" fill="white"/>
<path d="M11.3827 24.641L11.0344 24.6217C11.0359 24.591 11.1892 21.5179 10.3012 20.6271L10.5463 20.3763C11.5451 21.3779 11.3895 24.5079 11.3827 24.641Z" fill="white"/>
<path d="M26.337 29.9862C24.4806 33.0655 20.3474 33.5532 18.702 33.5532C17.0581 33.5532 13.1837 32.9562 11.5133 30.0624C10.5722 28.4316 10.3976 26.3716 10.4257 24.6878L10.4538 24.6316C10.4538 24.6316 17.2327 23.2216 19.1399 23.3085C20.8445 23.3862 26.2361 24.3809 27.3654 24.5932C27.5225 26.1193 27.5157 28.0324 26.337 29.9862Z" fill="#C7FFFC"/>
<path d="M12.7594 31.6593C12.6615 31.5193 12.5644 31.3678 12.471 31.2086L12.6206 31.1178C12.7116 31.2732 12.8065 31.4201 12.9014 31.5562L12.7594 31.6593ZM25.229 31.447L25.0886 31.3424L25.1607 31.2416L25.3026 31.3439L25.229 31.447ZM25.5955 30.8978L25.4468 30.8055C25.5371 30.6578 25.6236 30.5047 25.7041 30.3509L25.8581 30.4339C25.7754 30.5901 25.6874 30.747 25.5955 30.8978ZM12.2153 30.7401C12.1364 30.5832 12.0605 30.4216 11.9884 30.257L12.1477 30.1855C12.2183 30.347 12.2935 30.5055 12.3709 30.6601L12.2153 30.7401ZM26.0919 29.9532L25.9333 29.8801C26.0046 29.7216 26.0722 29.5586 26.1344 29.3962L26.2968 29.4601C26.2338 29.6255 26.1648 29.7916 26.0919 29.9532ZM11.7857 29.7639C11.722 29.5986 11.662 29.4309 11.6051 29.2624L11.7698 29.2055C11.8259 29.3716 11.8851 29.537 11.9481 29.7001L11.7857 29.7639ZM26.4737 28.9555L26.3082 28.9009C26.3621 28.7324 26.4107 28.5639 26.4547 28.397L26.6232 28.4424C26.5776 28.6124 26.5283 28.7839 26.4737 28.9555ZM11.4442 28.7539C11.3933 28.5824 11.3463 28.4109 11.3023 28.2401L11.4708 28.1955C11.514 28.3639 11.5611 28.5339 11.6112 28.7032L11.4442 28.7539ZM26.7446 27.9224L26.5738 27.8855C26.6103 27.7109 26.6414 27.5378 26.6679 27.3686L26.8402 27.3963C26.8129 27.5693 26.781 27.7447 26.7446 27.9224ZM11.1778 27.7216C11.1391 27.5455 11.1034 27.3709 11.0715 27.1993L11.2431 27.167C11.2742 27.3362 11.3091 27.5093 11.3478 27.6832L11.1778 27.7216ZM26.9085 26.8662L26.7347 26.8478C26.7537 26.6678 26.7674 26.4924 26.7757 26.3239L26.9503 26.3332C26.9419 26.5055 26.9275 26.6832 26.9085 26.8662ZM10.985 26.6732C10.9585 26.4909 10.9365 26.3139 10.919 26.1432L11.0928 26.1247C11.1103 26.2924 11.1315 26.467 11.1581 26.647L10.985 26.6732ZM26.7894 25.7993C26.7886 25.6178 26.7825 25.4416 26.7712 25.2755L26.945 25.2632C26.9571 25.4332 26.9632 25.6132 26.9639 25.7986L26.7894 25.7993ZM10.8773 25.6101C10.8712 25.4839 10.8681 25.3632 10.8681 25.2493L10.878 25.1132L10.9228 25.0216L10.9638 25.0124L11.0017 25.1086L11.0602 25.1378L11.0427 25.1732L11.0419 25.2493C11.0419 25.3609 11.045 25.4778 11.0511 25.6009L10.8773 25.6101ZM26.5116 25.0901L25.9963 24.9939L26.0274 24.8201L26.5435 24.9162L26.5116 25.0901ZM11.5322 25.0755L11.4981 24.9024C11.6453 24.8724 11.8184 24.8378 12.0126 24.7993L12.046 24.9724C11.8517 25.0109 11.6787 25.0463 11.5322 25.0755ZM25.4802 24.8993L24.9649 24.8063L24.9952 24.6324L25.5113 24.7262L25.4802 24.8993ZM12.5606 24.8716L12.528 24.6978L13.0433 24.5986L13.0752 24.7724L12.5606 24.8716ZM24.4495 24.7139L23.9335 24.6232L23.9631 24.4493L24.4791 24.5401L24.4495 24.7139ZM13.5897 24.6755L13.5586 24.5016C13.7271 24.4701 13.8994 24.4386 14.0747 24.407L14.1051 24.5809C13.9297 24.6124 13.7582 24.6439 13.5897 24.6755ZM23.4174 24.5347L22.9005 24.447L22.9286 24.2724L23.4454 24.3601L23.4174 24.5347ZM14.6212 24.4886L14.5916 24.3147C14.7631 24.2847 14.9354 24.2547 15.1084 24.2247L15.1372 24.3993C14.9642 24.4286 14.7919 24.4586 14.6212 24.4886ZM22.3844 24.3616C22.2106 24.3332 22.0376 24.3055 21.8676 24.2786L21.8942 24.1039C22.0649 24.1309 22.238 24.1586 22.4118 24.187L22.3844 24.3616ZM15.6541 24.3132L15.6268 24.1386C15.8006 24.1101 15.9736 24.0824 16.1451 24.0563L16.1717 24.2309C16.0002 24.257 15.8271 24.2847 15.6541 24.3132ZM21.35 24.1993C21.1732 24.1724 21.0001 24.147 20.8324 24.1232L20.8567 23.9478C21.0244 23.9716 21.1982 23.997 21.3758 24.0239L21.35 24.1993ZM16.6885 24.1524L16.6635 23.9778C16.8411 23.9516 17.0149 23.9278 17.1841 23.9055L17.2069 24.0809C17.0384 24.1032 16.8654 24.127 16.6885 24.1524ZM20.314 24.0524C20.1304 24.0286 19.9566 24.0078 19.7957 23.9893L19.8146 23.8139C19.9763 23.8316 20.1516 23.8532 20.3368 23.877L20.314 24.0524ZM17.7253 24.017L17.7063 23.8416C17.8907 23.8209 18.066 23.8032 18.23 23.7893L18.2444 23.9655C18.0812 23.9793 17.9082 23.9963 17.7253 24.017ZM19.2773 23.9424C19.2227 23.9386 19.171 23.9355 19.1232 23.9332C19.0686 23.9309 19.0086 23.9286 18.9472 23.9293C18.8895 23.9293 18.828 23.9309 18.7635 23.9332L18.7574 23.757C18.8272 23.7547 18.8955 23.7532 18.9555 23.7532C19.0177 23.7532 19.0769 23.7547 19.1308 23.757C19.1802 23.7593 19.2333 23.7624 19.2894 23.7663L19.2773 23.9424Z" fill="#79D3D3"/>
<path d="M25.3474 30.3786C23.7391 33.1194 20.1584 33.554 18.7324 33.554C17.3086 33.554 13.951 33.0225 12.5044 30.4463C11.6886 28.9948 11.5375 27.1609 11.5618 25.6625L11.5861 25.6125C11.5861 25.6125 17.4596 24.3579 19.1118 24.4348C20.5888 24.504 25.2601 25.3894 26.2384 25.5779C26.375 26.9363 26.3689 28.6394 25.3474 30.3786Z" fill="#94EAE7"/>
<path d="M13.9305 26.0432C13.9305 26.0432 16.7303 25.3494 19.1437 25.3855C21.5572 25.4217 24.1368 26.0432 24.1368 26.0432C24.1368 26.0432 19.3426 26.2294 13.9305 26.0432Z" fill="#67CEC9"/>
<path d="M13.9305 30.9078C13.9305 30.9078 16.7303 31.5047 19.1437 31.4724C21.5572 31.4409 24.1368 30.9078 24.1368 30.9078C24.1368 30.9078 19.3426 30.7478 13.9305 30.9078Z" fill="#67CEC9"/>
<path d="M13.6937 28.4016H24.3812C24.3812 28.4016 21.7158 29.1255 19.1437 29.2132C16.5724 29.3016 13.6937 28.4016 13.6937 28.4016Z" fill="#67CEC9"/>
<path d="M123.378 55.027H43.2084V56.0808H123.378V55.027Z" fill="white"/>
<path d="M43.9666 58.1816L39.4774 55.5539L43.9666 52.927V58.1816Z" fill="white"/>
<path d="M122.619 58.1816L127.109 55.5539L122.619 52.927V58.1816Z" fill="white"/>
<path d="M45.2851 42.7884H48.5611V34.6884L45.2851 36.8304V34.6884L49.2451 32.1144H50.8471V42.7884H53.2411V44.7144H45.2851V42.7884ZM55.1781 46.6944C55.7301 46.5384 56.1681 46.2804 56.4921 45.9204C56.8281 45.5604 57.0261 45.1944 57.0861 44.8224C56.1141 44.8224 55.6281 44.3424 55.6281 43.3824C55.6281 42.4104 56.1141 41.9244 57.0861 41.9244C57.6621 41.9244 58.0701 42.0984 58.3101 42.4464C58.5621 42.7824 58.6881 43.2744 58.6881 43.9224C58.6881 44.4264 58.6101 44.8944 58.4541 45.3264C58.3101 45.7584 58.1121 46.1484 57.8601 46.4964C57.6201 46.8444 57.3321 47.1384 56.9961 47.3784C56.6721 47.6304 56.3301 47.8224 55.9701 47.9544L55.1781 46.6944ZM61.9697 32.1144H69.0257V34.1664H63.6977L63.4997 36.8484C63.7157 36.8124 64.0037 36.7884 64.3637 36.7764C64.7237 36.7524 65.0897 36.7404 65.4617 36.7404C66.1937 36.7404 66.8177 36.8244 67.3337 36.9924C67.8497 37.1604 68.2697 37.4124 68.5937 37.7484C68.9177 38.0724 69.1517 38.4744 69.2957 38.9544C69.4397 39.4224 69.5117 39.9624 69.5117 40.5744C69.5117 41.2464 69.4337 41.8524 69.2777 42.3924C69.1217 42.9324 68.8577 43.3944 68.4857 43.7784C68.1137 44.1504 67.6217 44.4384 67.0097 44.6424C66.3977 44.8464 65.6357 44.9484 64.7237 44.9484C64.1837 44.9484 63.6137 44.8944 63.0137 44.7864C62.4257 44.6784 61.8917 44.5224 61.4117 44.3184V41.9604C61.7597 42.2124 62.2277 42.4284 62.8157 42.6084C63.4037 42.7884 64.0037 42.8784 64.6157 42.8784C65.5517 42.8784 66.2117 42.6924 66.5957 42.3204C66.9797 41.9364 67.1717 41.3664 67.1717 40.6104C67.1717 40.2504 67.1297 39.9444 67.0457 39.6924C66.9617 39.4284 66.8177 39.2124 66.6137 39.0444C66.4097 38.8764 66.1337 38.7564 65.7857 38.6844C65.4497 38.6004 65.0237 38.5584 64.5077 38.5584C63.9677 38.5584 63.4217 38.5884 62.8697 38.6484C62.3177 38.6964 61.8737 38.7504 61.5377 38.8104L61.9697 32.1144ZM76.5067 35.1024H79.3687L81.3847 40.2144L83.4547 35.1024H86.2627V44.7144H84.1927V39.1524C84.1927 38.9484 84.1927 38.7384 84.1927 38.5224C84.2047 38.3064 84.2167 38.1144 84.2287 37.9464C84.2407 37.7424 84.2527 37.5444 84.2647 37.3524H84.1927C84.1207 37.5564 84.0487 37.7664 83.9767 37.9824C83.9167 38.1624 83.8447 38.3604 83.7607 38.5764C83.6887 38.7804 83.6227 38.9724 83.5627 39.1524L82.0867 42.6984H80.6467L79.2247 39.1524C79.1527 38.9604 79.0747 38.7624 78.9907 38.5584C78.9187 38.3424 78.8527 38.1444 78.7927 37.9644C78.7207 37.7484 78.6487 37.5444 78.5767 37.3524H78.5227C78.5227 37.5444 78.5287 37.7424 78.5407 37.9464C78.5527 38.1144 78.5587 38.3064 78.5587 38.5224C78.5707 38.7384 78.5767 38.9484 78.5767 39.1524V44.7144H76.5067V35.1024ZM92.773 44.9484C91.141 44.9484 89.971 44.5284 89.263 43.6884C88.555 42.8484 88.201 41.5464 88.201 39.7824C88.201 38.1264 88.579 36.8964 89.335 36.0924C90.103 35.2884 91.171 34.8864 92.539 34.8864C94.027 34.8864 95.089 35.2764 95.725 36.0564C96.373 36.8244 96.697 37.9524 96.697 39.4404V40.4844H90.397C90.433 41.3964 90.655 42.0564 91.063 42.4644C91.483 42.8724 92.137 43.0764 93.025 43.0764C93.637 43.0764 94.225 42.9804 94.789 42.7884C95.365 42.5844 95.809 42.3384 96.121 42.0504V44.0844C95.773 44.3124 95.335 44.5164 94.807 44.6964C94.279 44.8644 93.601 44.9484 92.773 44.9484ZM92.539 36.6144C91.855 36.6144 91.339 36.8124 90.991 37.2084C90.643 37.5924 90.445 38.2164 90.397 39.0804H94.501C94.501 38.2764 94.363 37.6644 94.087 37.2444C93.811 36.8244 93.295 36.6144 92.539 36.6144ZM100.618 37.0824H97.8455V35.1024H105.586V37.0824H102.814V44.7144H100.618V37.0824ZM107.286 35.1024H109.392L109.482 36.5424C109.602 36.3144 109.746 36.0984 109.914 35.8944C110.094 35.6904 110.304 35.5164 110.544 35.3724C110.784 35.2164 111.06 35.0964 111.372 35.0124C111.696 34.9284 112.062 34.8864 112.47 34.8864C113.058 34.8864 113.568 34.9764 114 35.1564C114.444 35.3364 114.81 35.6244 115.098 36.0204C115.386 36.4044 115.602 36.9084 115.746 37.5324C115.89 38.1564 115.962 38.9184 115.962 39.8184C115.962 41.6544 115.65 42.9684 115.026 43.7604C114.414 44.5524 113.484 44.9484 112.236 44.9484C111.84 44.9484 111.492 44.9004 111.192 44.8044C110.892 44.7084 110.628 44.5884 110.4 44.4444C110.184 44.2884 109.998 44.1144 109.842 43.9224C109.698 43.7184 109.578 43.5144 109.482 43.3104V47.9544H107.286V35.1024ZM113.694 39.8184C113.694 39.2544 113.652 38.7864 113.568 38.4144C113.484 38.0304 113.352 37.7244 113.172 37.4964C113.004 37.2684 112.788 37.1064 112.524 37.0104C112.272 36.9144 111.972 36.8664 111.624 36.8664C110.94 36.8664 110.412 37.0704 110.04 37.4784C109.668 37.8744 109.482 38.5164 109.482 39.4044V40.4124C109.482 41.2884 109.668 41.9364 110.04 42.3564C110.424 42.7644 110.946 42.9684 111.606 42.9684C111.954 42.9684 112.26 42.9204 112.524 42.8244C112.788 42.7284 113.004 42.5604 113.172 42.3204C113.352 42.0684 113.484 41.7444 113.568 41.3484C113.652 40.9404 113.694 40.4304 113.694 39.8184ZM120.225 44.9484C119.289 44.9484 118.575 44.7024 118.083 44.2104C117.603 43.7184 117.363 42.9984 117.363 42.0504C117.363 41.5464 117.429 41.1084 117.561 40.7364C117.693 40.3644 117.909 40.0584 118.209 39.8184C118.509 39.5664 118.899 39.3804 119.379 39.2604C119.859 39.1284 120.447 39.0624 121.143 39.0624H122.943V38.4144C122.943 37.8504 122.805 37.4544 122.529 37.2264C122.253 36.9864 121.743 36.8664 120.999 36.8664C120.435 36.8664 119.895 36.9384 119.379 37.0824C118.875 37.2264 118.467 37.4004 118.155 37.6044V35.4444C118.515 35.2884 118.977 35.1564 119.541 35.0484C120.105 34.9404 120.711 34.8864 121.359 34.8864C122.055 34.8864 122.643 34.9464 123.123 35.0664C123.615 35.1864 124.005 35.3844 124.293 35.6604C124.593 35.9364 124.809 36.2964 124.941 36.7404C125.073 37.1844 125.139 37.7304 125.139 38.3784V44.7144H123.159L123.069 43.1844C122.889 43.6644 122.565 44.0784 122.097 44.4264C121.629 44.7744 121.005 44.9484 120.225 44.9484ZM121.017 43.0764C121.617 43.0764 122.085 42.9024 122.421 42.5544C122.769 42.1944 122.943 41.6724 122.943 40.9884V40.4664H121.395C120.723 40.4664 120.261 40.5804 120.009 40.8084C119.757 41.0244 119.631 41.3724 119.631 41.8524C119.631 42.2604 119.739 42.5664 119.955 42.7704C120.171 42.9744 120.525 43.0764 121.017 43.0764Z" fill="white"/>
</g>
<defs>
<clipPath id="clip0">
<rect y="0.474731" width="173" height="113" fill="white"/>
</clipPath>
</defs>
</svg>
