<svg width="43" height="48" viewBox="0 0 43 48" fill="none" xmlns="http://www.w3.org/2000/svg">
<path d="M41.8986 10.1311C42.1356 10.2464 42.3379 10.4377 42.4648 10.6917C42.4709 10.7038 42.4767 10.7159 42.4823 10.7281C42.4946 10.7549 42.506 10.7821 42.5164 10.8097C42.5737 10.9617 42.5991 11.1178 42.5958 11.2716V19.9331C42.5958 20.6185 42.0402 21.1741 41.3549 21.1741C40.6696 21.1741 40.114 20.6185 40.114 19.9331V13.2545L34.4643 16.0793C33.8513 16.3858 33.1059 16.1374 32.7994 15.5244C32.4929 14.9114 32.7414 14.166 33.3544 13.8595L38.5801 11.2466L33.3544 8.63375C32.7414 8.32725 32.4929 7.58186 32.7994 6.96887C33.1059 6.35588 33.8513 6.10741 34.4643 6.41391L41.8986 10.1311ZM42.5958 36.0403C42.5996 36.2225 42.5633 36.408 42.4823 36.5837C42.4216 36.7158 42.3379 36.8366 42.2349 36.9402C42.1304 37.044 42.019 37.1222 41.8986 37.1808L34.4643 40.8979C33.8513 41.2044 33.1059 40.956 32.7994 40.343C32.4929 39.73 32.7414 38.9846 33.3544 38.6781L38.5801 36.0652L33.3544 33.4524C32.7414 33.1459 32.4929 32.4005 32.7994 31.7875C33.1059 31.1745 33.8513 30.926 34.4643 31.2325L40.114 34.0574V27.3787C40.114 26.6934 40.6696 26.1378 41.3549 26.1378C42.0402 26.1378 42.5958 26.6934 42.5958 27.3787V36.0403ZM4.41994 36.0652L9.64567 38.6781C10.2587 38.9846 10.5071 39.73 10.2006 40.343C9.89414 40.956 9.14875 41.2044 8.53575 40.8979L1.10138 37.1808C0.864424 37.0655 0.662166 36.8741 0.535211 36.6202C0.529158 36.6081 0.523322 36.5959 0.517701 36.5837C0.505393 36.557 0.494025 36.5298 0.483626 36.5021C0.426375 36.3501 0.400979 36.194 0.404202 36.0403V27.3787C0.404202 26.6934 0.959786 26.1378 1.64513 26.1378C2.33048 26.1378 2.88606 26.6934 2.88606 27.3787V34.0574L8.53575 31.2325C9.14875 30.926 9.89414 31.1745 10.2006 31.7875C10.5071 32.4005 10.2587 33.1459 9.64567 33.4524L4.41994 36.0652ZM2.88606 13.2545V19.9331C2.88606 20.6185 2.33048 21.1741 1.64513 21.1741C0.959786 21.1741 0.404202 20.6185 0.404202 19.9331V11.2716C0.400382 11.0894 0.436756 10.9039 0.517701 10.7281C0.578481 10.596 0.662177 10.4752 0.765133 10.3716C0.86962 10.2678 0.981025 10.1897 1.10138 10.1311L8.53575 6.41391C9.14875 6.10741 9.89414 6.35588 10.2006 6.96887C10.5071 7.58186 10.2587 8.32725 9.64567 8.63375L4.41994 11.2466L9.64567 13.8595C10.2587 14.166 10.5071 14.9114 10.2006 15.5244C9.89414 16.1374 9.14875 16.3858 8.53575 16.0793L2.88606 13.2545ZM20.9227 0.22042C21.0952 0.12963 21.2916 0.0782471 21.5 0.0782471C21.7084 0.0782471 21.9049 0.12963 22.0773 0.22042L29.5006 3.93205C30.1136 4.23854 30.362 4.98394 30.0555 5.59693C29.749 6.20992 29.0036 6.45839 28.3906 6.15189L22.7409 3.32704V10.0057C22.7409 10.691 22.1854 11.2466 21.5 11.2466C20.8147 11.2466 20.2591 10.691 20.2591 10.0057V3.32704L14.6094 6.15189C13.9964 6.45839 13.251 6.20992 12.9445 5.59693C12.638 4.98394 12.8865 4.23854 13.4995 3.93205L20.9227 0.22042ZM22.0773 47.0914C21.9049 47.1822 21.7084 47.2336 21.5 47.2336C21.2916 47.2336 21.0952 47.1822 20.9227 47.0914L13.4995 43.3798C12.8865 43.0733 12.638 42.3279 12.9445 41.7149C13.251 41.1019 13.9964 40.8535 14.6094 41.16L20.2591 43.9848V37.3062C20.2591 36.6208 20.8147 36.0652 21.5 36.0652C22.1854 36.0652 22.7409 36.6208 22.7409 37.3062V43.9848L28.3906 41.16C29.0036 40.8535 29.749 41.1019 30.0555 41.7149C30.362 42.3279 30.1136 43.0733 29.5006 43.3798L22.0773 47.0914ZM22.7409 21.941V28.6196C22.7409 29.305 22.1854 29.8606 21.5 29.8606C20.8147 29.8606 20.2591 29.305 20.2591 28.6196V21.941L13.4995 18.5612C12.8865 18.2547 12.638 17.5093 12.9445 16.8963C13.251 16.2833 13.9964 16.0349 14.6094 16.3414L21.5 19.7867L28.3906 16.3414C29.0036 16.0349 29.749 16.2833 30.0555 16.8963C30.362 17.5093 30.1136 18.2547 29.5006 18.5612L22.7409 21.941Z" fill="#595959"/>
</svg>
